<?xml version="1.0" encoding="UTF-8"?>
<svg version="1.1" xmlns="http://www.w3.org/2000/svg" width="640" height="480">
<path d="M0 0 C45.54 0 91.08 0 138 0 C135.45445278 2.54554722 133.21499334 4.27947648 130.25 6.25 C116.53518114 15.86430698 110.53730428 28.89537865 107 45 C107 45.99 107 46.98 107 48 C121.98509465 44.86675294 137.67832683 40.44025835 146.6875 27 C147.24824219 26.175 147.80898437 25.35 148.38671875 24.5 C149.51305685 22.75458503 150.59599006 20.98072958 151.64453125 19.1875 C152.09183594 18.465625 152.53914062 17.74375 153 17 C153.33 17 153.66 17 154 17 C154 62.21 154 107.42 154 154 C151.54488546 151.54488546 150.04455243 149.633382 148.25 146.75 C138.26597568 131.82219553 123.04638609 126.44554612 106 123 C109.99050341 139.38497023 114.72915404 155.27572569 129.6875 164.75 C130.61949219 165.30171875 131.55148438 165.8534375 132.51171875 166.421875 C135 168 135 168 138 171 C92.46 171 46.92 171 0 171 C2.47206664 168.52793336 4.47283828 166.95742293 7.375 165.125 C22.54219895 155.12788018 27.55804554 139.77520232 32 123 C15.0068676 126.89388567 -0.67975917 131.40530141 -10.84765625 146.796875 C-11.89856722 148.55584655 -12.92163523 150.33198429 -13.90625 152.12890625 C-14.44765625 153.05509766 -14.44765625 153.05509766 -15 154 C-15.33 154 -15.66 154 -16 154 C-16 108.79 -16 63.58 -16 17 C-13.42458294 20.21927132 -11.42351314 22.87527089 -9.375 26.3125 C-0.69107844 39.31678054 13.91403738 44.49527745 28.6484375 47.5546875 C29.42445312 47.70164063 30.20046875 47.84859375 31 48 C27.83051141 30.58069687 22.38210467 16.92931205 8 6 C5.85395221 4.5839753 3.69191304 3.23645719 1.46875 1.9453125 C0.74171875 1.47738281 0.74171875 1.47738281 0 1 C0 0.67 0 0.34 0 0 Z M39 58 C39 72.52 39 87.04 39 102 C46.76313121 102.28888987 46.76313121 102.28888987 54.52661133 102.56811523 C55.4936499 102.60622314 56.46068848 102.64433105 57.45703125 102.68359375 C58.44678955 102.72025146 59.43654785 102.75690918 60.45629883 102.79467773 C63 103 63 103 66 104 C66.12374395 97.96776797 66.21440813 91.93627715 66.2746582 85.90307617 C66.29977806 83.85151294 66.33388036 81.80003899 66.37719727 79.7487793 C66.43796002 76.79713909 66.46623492 73.8466835 66.48828125 70.89453125 C66.51408768 69.97976517 66.5398941 69.06499908 66.56648254 68.12251282 C66.5684684 63.59760165 66.47538187 61.6301504 63.67382812 57.91650391 C60.27904954 55.48324862 58.33116921 55.42087514 54.1875 55.5625 C52.44533203 55.59537109 52.44533203 55.59537109 50.66796875 55.62890625 C46.22871463 55.98931494 46.22871463 55.98931494 39 58 Z M72 61 C71.31913082 64.30762798 71.41679185 67.5296365 71.51171875 70.89453125 C71.51879349 71.84188644 71.52586823 72.78924164 71.53315735 73.76530457 C71.56107666 76.78185021 71.62381085 79.7965184 71.6875 82.8125 C71.71258604 84.86130126 71.73539867 86.9101317 71.75585938 88.95898438 C71.81089541 93.97337621 71.89715144 98.98637014 72 104 C72.60708801 103.83923477 73.21417603 103.67846954 73.83966064 103.51283264 C76.3951383 102.90620001 78.79743841 102.78565517 81.421875 102.68359375 C82.34581055 102.64548584 83.26974609 102.60737793 84.22167969 102.56811523 C85.38602539 102.52501221 86.55037109 102.48190918 87.75 102.4375 C93.31875 102.2209375 93.31875 102.2209375 99 102 C99 87.48 99 72.96 99 58 C91.08279375 56.20186438 91.08279375 56.20186438 83.25 55.5625 C81.64898437 55.50255859 81.64898437 55.50255859 80.015625 55.44140625 C75.80924035 56.22056817 74.58242895 57.60001276 72 61 Z M28.9375 60 C26.64144663 62.37011961 26.73310663 63.00591576 26.75 66.1875 C26.87375 68.0746875 26.87375 68.0746875 27 70 C25.20759337 69.88610125 23.41605165 69.75852313 21.625 69.625 C20.12839844 69.52058594 20.12839844 69.52058594 18.6015625 69.4140625 C16 69 16 69 14 67 C10.70285207 67.32971479 9.3773161 67.6226839 7 70 C7 70.99 7 71.98 7 73 C6.01 73.33 5.02 73.66 4 74 C4.99 74 5.98 74 7 74 C7.185625 74.928125 7.185625 74.928125 7.375 75.875 C7.87197356 78.19120832 7.87197356 78.19120832 10 80 C13.30683466 79.71016731 13.30683466 79.71016731 16 78 C17.84891946 77.76636119 19.70488031 77.58696365 21.5625 77.4375 C24.2540625 77.2209375 24.2540625 77.2209375 27 77 C27 82.61 27 88.22 27 94 C15.88392857 93.19642857 15.88392857 93.19642857 11 91 C9.62437146 92.28965176 8.29233607 93.62689293 7 95 C7 95.66 7 96.32 7 97 C6.34 97 5.68 97 5 97 C5 97.66 5 98.32 5 99 C5.66 99 6.32 99 7 99 C7.3403125 99.9590625 7.3403125 99.9590625 7.6875 100.9375 C8.85242868 103.23783339 8.85242868 103.23783339 11.5 103.875 C12.325 103.91625 13.15 103.9575 14 104 C14.66 103.34 15.32 102.68 16 102 C18.6015625 101.5859375 18.6015625 101.5859375 21.625 101.375 C23.39875 101.25125 25.1725 101.1275 27 101 C27 104.96 27 108.92 27 113 C27.99854004 113.01981934 28.99708008 113.03963867 30.02587891 113.06005859 C33.74975732 113.13644264 37.47326161 113.225108 41.19677734 113.31738281 C42.80477482 113.35553759 44.41285373 113.39041348 46.02099609 113.421875 C48.33981316 113.4678206 50.6580762 113.52576381 52.9765625 113.5859375 C53.68930328 113.59748871 54.40204407 113.60903992 55.13638306 113.62094116 C59.46277432 113.74731198 62.93743432 114.57893793 67 116 C70.57789788 115.69678832 73.59820764 115.13393079 77 114 C79.51054905 113.8470353 81.99888525 113.74304822 84.51171875 113.68359375 C85.60405571 113.6524221 85.60405571 113.6524221 86.71846008 113.62062073 C89.04137875 113.55531254 91.36440906 113.49632763 93.6875 113.4375 C95.26368335 113.39429695 96.83985548 113.35068208 98.41601562 113.30664062 C102.27722975 113.1996504 106.13855603 113.09833039 110 113 C110 109.04 110 105.08 110 101 C115.61 101 121.22 101 127 101 C127.33 99.35 127.66 97.7 128 96 C126.03464283 93.58877632 126.03464283 93.58877632 122.3046875 93.8046875 C120.82798332 93.8161291 119.35138199 93.84210093 117.875 93.875 C115.27625 93.91625 112.6775 93.9575 110 94 C110 88.39 110 82.78 110 77 C118.4375 77.0625 118.4375 77.0625 121.09936523 77.09008789 C123.06645974 77.09723091 125.03353621 77.05031893 127 77 C128.29633621 75.93354885 128.29633621 75.93354885 128.0625 73.4375 C128.041875 72.633125 128.02125 71.82875 128 71 C124.81175432 69.40587716 121.37103338 69.89825265 117.875 69.9375 C117.12089844 69.94201172 116.36679688 69.94652344 115.58984375 69.95117188 C113.72652873 69.96296501 111.86325445 69.98090058 110 70 C110 67.03 110 64.06 110 61 C108.68 60.67 107.36 60.34 106 60 C106 75.84 106 91.68 106 108 C92.3125 107.875 92.3125 107.875 88.02075195 107.81982422 C86.89628662 107.8148291 85.77182129 107.80983398 84.61328125 107.8046875 C83.46641846 107.79421387 82.31955566 107.78374023 81.13793945 107.77294922 C77.9908057 108.00066527 75.850974 108.70755845 73 110 C70.9375 110.265625 70.9375 110.265625 69 110.25 C68.360625 110.25515625 67.72125 110.2603125 67.0625 110.265625 C65 110 65 110 62.78442383 108.99560547 C59.48933864 107.81740666 56.88196892 107.77276741 53.38671875 107.8046875 C51.70002075 107.81218018 51.70002075 107.81218018 49.97924805 107.81982422 C47.85483276 107.84713623 47.85483276 107.84713623 45.6875 107.875 C38.9121875 107.936875 38.9121875 107.936875 32 108 C32 91.83 32 75.66 32 59 C30.76794567 58.92728775 30.76794567 58.92728775 28.9375 60 Z " fill="#50247A" transform="translate(67,133)"/>
<path d="M0 0 C17.88944332 14.83943987 26.67200949 35.69024674 28.8515625 58.546875 C30.82630339 83.36964754 25.50787949 107.03235113 10.0078125 126.9140625 C2.21963431 135.90042195 -9.47301623 146.22904059 -21.6171875 147.9765625 C-15.23269422 162.27782744 -3.28615176 171.37943693 11.171875 176.98046875 C17.13874107 178.83150385 23.22600477 179.94201694 29.3828125 180.9765625 C29.3828125 183.9465625 29.3828125 186.9165625 29.3828125 189.9765625 C4.05756377 191.02691844 -20.54785828 185.4785188 -42.6171875 172.9765625 C-43.58785156 172.43386719 -44.55851563 171.89117187 -45.55859375 171.33203125 C-51.80072474 167.59765594 -57.18709257 163.09463212 -62.49658203 158.15136719 C-66.58397507 154.45867691 -70.39239952 152.62386214 -75.6171875 150.9765625 C-97.78360728 143.051407 -113.63300484 129.83319332 -124.19262695 108.42651367 C-134.94837771 85.54710444 -135.42822201 57.6531857 -127.1484375 33.921875 C-119.21092913 12.75170464 -104.87217117 -2.87064014 -84.28125 -12.515625 C-55.67514761 -24.28743259 -24.19625404 -18.70695462 0 0 Z M-80.6171875 8.9765625 C-97.81582583 30.17667373 -99.97104787 58.8230039 -97.30078125 85.08886719 C-94.81980208 102.46174314 -88.75758056 119.83438449 -74.87109375 131.32421875 C-66.97417786 137.11346558 -57.46672435 140.11441513 -47.6171875 138.9765625 C-40.37903471 137.61808221 -34.56432448 135.29678155 -28.6171875 130.9765625 C-27.7715625 130.4196875 -26.9259375 129.8628125 -26.0546875 129.2890625 C-12.78758711 116.70232623 -6.25873994 96.0259458 -5.49291992 78.06152344 C-4.90994089 53.43562283 -6.05299523 27.28220174 -23.9296875 8.1015625 C-31.88333376 0.85490702 -41.32116635 -3.5490128 -52.14453125 -4.16796875 C-62.4961981 -3.56289502 -73.49215062 1.39552325 -80.6171875 8.9765625 Z " fill="#50247A" transform="translate(589.6171875,150.0234375)"/>
<path d="M0 0 C21.45 0 42.9 0 65 0 C65 3.3 65 6.6 65 10 C63.453125 10.226875 61.90625 10.45375 60.3125 10.6875 C55.50329536 11.64116664 53.03017075 12.99235481 50 17 C49.09883932 19.70348203 48.87113655 21.26988717 48.85955811 24.04516602 C48.85384796 24.8663945 48.84813782 25.68762299 48.84225464 26.53373718 C48.84113678 27.43139297 48.84001892 28.32904877 48.83886719 29.25390625 C48.83390228 30.20227859 48.82893738 31.15065094 48.82382202 32.12776184 C48.80919131 35.27268191 48.80239481 38.41755145 48.796875 41.5625 C48.79112174 43.75146486 48.78536403 45.9404297 48.77960205 48.12939453 C48.76908772 52.72607661 48.76324872 57.32274118 48.75976562 61.91943359 C48.75429769 67.78905803 48.73030788 73.65844853 48.70179367 79.52799988 C48.68309614 84.054389 48.67795778 88.58072275 48.67642975 93.10714722 C48.6734158 95.269534 48.66543012 97.43192011 48.65224457 99.5942688 C48.56400056 115.18623974 48.75651132 129.15361074 59.25 141.6875 C69.76420549 150.52899098 79.30458945 152.90509693 92.87695312 152.19091797 C103.36136608 151.24809243 114.03871595 146.4883069 121.1328125 138.640625 C127.52945648 130.02255236 129.45365294 121.8177817 129.40405273 111.21948242 C129.41091599 110.1809613 129.41777924 109.14244019 129.42485046 108.07244873 C129.44303664 104.66664669 129.43929484 101.26130853 129.43359375 97.85546875 C129.43815725 95.47894644 129.44346333 93.10242545 129.44947815 90.72590637 C129.45839147 85.7590293 129.45600367 80.79231321 129.44604492 75.82543945 C129.43451761 69.4552247 129.45483373 63.08556118 129.48396206 56.71541882 C129.50228128 51.81442228 129.50204081 46.91355917 129.49632454 42.012537 C129.49617101 39.66294897 129.50224094 37.31335207 129.51461601 34.96379662 C129.5294546 31.68668959 129.51890327 28.41061897 129.50170898 25.13354492 C129.51137695 24.16153641 129.52104492 23.18952789 129.53100586 22.18806458 C129.52083429 16.95024411 129.52083429 16.95024411 127.15711975 12.40473938 C124.30244243 10.54574307 122.13497688 10.39717291 118.75 10.25 C117.67234375 10.19328125 116.5946875 10.1365625 115.484375 10.078125 C114.25460937 10.03945312 114.25460937 10.03945312 113 10 C113 6.7 113 3.4 113 0 C130.16 0 147.32 0 165 0 C165 3.3 165 6.6 165 10 C163.75283203 10.05607422 163.75283203 10.05607422 162.48046875 10.11328125 C160.85044922 10.21189453 160.85044922 10.21189453 159.1875 10.3125 C158.10855469 10.37050781 157.02960938 10.42851562 155.91796875 10.48828125 C152.78821187 11.03714089 151.85888316 11.49884491 150 14 C148.83772404 16.32455191 148.87288241 17.66489579 148.86869812 20.25312805 C148.86468994 21.14581894 148.86068176 22.03850983 148.85655212 22.95825195 C148.85708084 23.94051758 148.85760956 24.9227832 148.8581543 25.93481445 C148.85467987 26.96761032 148.85120544 28.00040619 148.84762573 29.0644989 C148.84025821 31.31475088 148.83491816 33.56501019 148.83133507 35.81527138 C148.82417441 39.38538627 148.80850735 42.95536333 148.78999329 46.5254364 C148.73752905 56.67912824 148.68961706 66.83274804 148.67407227 76.98657227 C148.66394522 83.19414597 148.6344926 89.40137793 148.59275246 95.60881615 C148.58049597 97.96767774 148.57531134 100.32658775 148.57755089 102.68548012 C148.59124024 121.82453119 147.17303793 138.5895847 133.375 153.25 C117.24607443 168.3948691 96.81994319 171.77484652 75.45605469 171.13623047 C57.9576317 170.165642 41.5824822 162.59195491 29.5546875 149.90234375 C16.28187894 133.66149508 15.70975811 114.91952024 15.75617027 94.92436218 C15.76183465 91.77940217 15.75249345 88.6348012 15.7389679 85.48986816 C15.70210883 76.55963251 15.68335384 67.62952869 15.69458008 58.69921875 C15.70043029 53.21047043 15.6821922 47.72223954 15.64869118 42.2335968 C15.64074949 40.15083767 15.64199738 38.06802197 15.65271568 35.98527527 C15.66704317 33.0801025 15.6507778 30.17656667 15.62768555 27.27148438 C15.63945328 26.41737976 15.65122101 25.56327515 15.66334534 24.68328857 C15.59832956 20.50992002 15.27517811 17.8078406 12.62800598 14.48449707 C9.82836563 11.83773816 8.44580808 11.12610774 4.6875 10.625 C2.3671875 10.315625 2.3671875 10.315625 0 10 C0 6.7 0 3.4 0 0 Z " fill="#50247A" transform="translate(284,133)"/>
<path d="M0 0 C75.9 0 151.8 0 230 0 C230.0825 24.5025 230.165 49.005 230.25 74.25 C230.28641602 81.95118164 230.32283203 89.65236328 230.36035156 97.58691406 C230.37841797 107.08154297 230.37841797 107.08154297 230.3817749 111.54388428 C230.38546142 114.62229237 230.40028764 117.70041702 230.42230225 120.77874756 C230.72112664 164.52731675 220.50593733 197.91498997 189.38330078 229.60839844 C172.48640543 246.60668709 140.97039941 270.55930238 115.84741211 272.13500977 C86.25457517 271.01151845 54.07408412 243.84098633 34.3671875 223.6171875 C12.19783852 199.10652113 -0.40362873 169.78153447 -0.22705078 136.68457031 C-0.22643667 135.16123846 -0.22670755 133.63790603 -0.2277813 132.11457443 C-0.22822894 128.07095203 -0.21671962 124.02745035 -0.20256042 119.9838562 C-0.19108797 116.17592021 -0.19062973 112.36801214 -0.18920898 108.56005859 C-0.1787549 97.45669002 -0.15083236 86.35334344 -0.125 75.25 C-0.08375 50.4175 -0.0425 25.585 0 0 Z M7 6 C6.9175 29.88375 6.835 53.7675 6.75 78.375 C6.71358398 85.88556152 6.67716797 93.39612305 6.63964844 101.13427734 C6.6262616 107.93183534 6.6262616 107.93183534 6.6182251 114.72940063 C6.61453414 117.73123268 6.59968947 120.7327749 6.57769775 123.73452759 C6.33776887 158.03251225 12.51405975 187.68590988 36 214 C37.06154297 215.24136719 37.06154297 215.24136719 38.14453125 216.5078125 C55.14618012 236.0520503 76.6165915 250.78027474 100.5625 260.5 C101.39563721 260.83870117 102.22877441 261.17740234 103.0871582 261.52636719 C110.80608961 264.53627478 116.54106761 265.80581902 124.4375 262.5625 C125.12779297 262.28954102 125.81808594 262.01658203 126.52929688 261.73535156 C145.59371367 254.01797885 162.68612467 243.71361588 178 230 C178.87140625 229.26136719 179.7428125 228.52273438 180.640625 227.76171875 C202.83149016 208.67617906 219.09957421 181.14406996 223 152 C223.26573798 147.11568367 223.25417104 142.23865539 223.22705078 137.34887695 C223.22643676 135.88574071 223.22670739 134.42260387 223.2277813 132.95946789 C223.22822921 129.0732459 223.21671411 125.18714934 223.20256042 121.30095673 C223.19109376 117.64216252 223.19063004 113.98339742 223.18920898 110.32458496 C223.17875207 99.65387363 223.15082954 88.98318519 223.125 78.3125 C223.08375 54.449375 223.0425 30.58625 223 6 C151.72 6 80.44 6 7 6 Z " fill="#50247A" transform="translate(21,104)"/>
<path d="M0 0 C1.98 0 3.96 0 6 0 C5.67 1.32 5.34 2.64 5 4 C3.35 3.67 1.7 3.34 0 3 C0 2.01 0 1.02 0 0 Z " fill="#50247A" transform="translate(76,207)"/>
<path d="M0 0 C1.65 0.33 3.3 0.66 5 1 C5 1.99 5 2.98 5 4 C3.02 4 1.04 4 -1 4 C-0.67 2.68 -0.34 1.36 0 0 Z " fill="#50247A" transform="translate(77,202)"/>
<path d="M0 0 C1.32 0 2.64 0 4 0 C4.33 1.32 4.66 2.64 5 4 C3.02 4 1.04 4 -1 4 C-0.67 2.68 -0.34 1.36 0 0 Z " fill="#50247A" transform="translate(77,226)"/>
<path d="M0 0 C1.98 0 3.96 0 6 0 C5.67 0.99 5.34 1.98 5 3 C3.35 2.67 1.7 2.34 0 2 C0 1.34 0 0.68 0 0 Z " fill="#50247A" transform="translate(76,232)"/>
</svg>
