<?xml version="1.0" encoding="UTF-8"?>
<svg version="1.1" xmlns="http://www.w3.org/2000/svg" width="400" height="400">
<path d="M0 0 C132 0 264 0 400 0 C400 132 400 264 400 400 C268 400 136 400 0 400 C0 268 0 136 0 0 Z " fill="#512479" transform="translate(0,0)"/>
<path d="M0 0 C74.58 0 149.16 0 226 0 C226.061875 24.399375 226.12375 48.79875 226.1875 73.9375 C226.22846802 85.45192993 226.22846802 85.45192993 226.27026367 97.19897461 C226.28381348 106.64367676 226.28381348 106.64367676 226.28633118 111.07887268 C226.28910238 114.1465265 226.30024858 117.21402123 226.31672668 120.28163147 C226.53827304 163.48068049 216.34267736 195.40206209 186 227 C185.46648926 227.556875 184.93297852 228.11375 184.38330078 228.6875 C167.15578851 246.33780312 137.71329836 266.92533088 112.40234375 269.34375 C108.51827427 268.95132966 105.16229225 267.93124814 101.5625 266.5 C100.87438232 266.23300293 100.18626465 265.96600586 99.47729492 265.69091797 C78.07249028 257.17568159 58.72317704 244.85510373 42 229 C41.04222656 228.10667969 40.08445313 227.21335937 39.09765625 226.29296875 C16.79086159 205.06541868 0.67610374 175.56711301 -0.34484863 144.43569946 C-0.52516789 136.04994084 -0.46458474 127.66170655 -0.40512085 119.27489471 C-0.38202622 115.48252621 -0.38125158 111.69026693 -0.37841797 107.89782715 C-0.35758211 96.86932137 -0.30173732 85.8409041 -0.25 74.8125 C-0.1675 50.124375 -0.085 25.43625 0 0 Z " fill="#522679" transform="translate(86,80)"/>
<path d="M0 0 C43.56 0 87.12 0 132 0 C129.02658159 2.37873473 126.14731093 4.62348284 123.0625 6.8125 C109.95209246 16.75578662 105.24193412 31.49509771 102 47 C117.03221791 44.53377675 131.80065201 39.94298653 142 28 C144.04643882 25.09210072 145.93204621 22.16126662 147.72265625 19.08984375 C148.14417969 18.40019531 148.56570313 17.71054688 149 17 C149.33 17 149.66 17 150 17 C150 61.22 150 105.44 150 151 C147.41760346 149.70880173 147.13635468 148.508723 145.875 145.9375 C140.05600373 135.24954766 130.14392503 128.2016405 118.58203125 124.72265625 C117.30392578 124.36494141 117.30392578 124.36494141 116 124 C114.18048828 123.47212891 114.18048828 123.47212891 112.32421875 122.93359375 C108.88741911 121.93918541 105.44506984 120.96540364 102 120 C106.25257505 137.39041864 111.2408073 153.72226563 127 164 C128.97854135 165.13522865 130.90587136 166.08717469 133 167 C133 167.33 133 167.66 133 168 C88.78 168 44.56 168 -1 168 C4 164 4 164 7 162.0625 C21.50438665 152.09073418 25.67162177 136.12864959 30 120 C10.92986059 124.21358873 10.92986059 124.21358873 -5 135 C-5.66 135 -6.32 135 -7 135 C-7.26941406 135.5775 -7.53882812 136.155 -7.81640625 136.75 C-9.0166126 139.03158039 -10.36925047 140.95688611 -11.9375 143 C-12.69353516 143.99 -12.69353516 143.99 -13.46484375 145 C-14.22474609 145.99 -14.22474609 145.99 -15 147 C-16.485 148.98 -16.485 148.98 -18 151 C-18 106.78 -18 62.56 -18 17 C-15.41760346 18.29119827 -15.13635468 19.491277 -13.875 22.0625 C-7.52495877 33.67663338 3.32430871 40.41057377 15.75 44.3125 C20.47230907 45.65048757 25.23633883 46.81939566 30 48 C26.04526423 30.57644243 21.56162922 14.72161314 5.7890625 4.578125 C4.37233611 3.69329237 2.94482464 2.82533361 1.50390625 1.98046875 C1.00761719 1.65691406 0.51132813 1.33335938 0 1 C0 0.67 0 0.34 0 0 Z " fill="#FCFAFC" transform="translate(133,110)"/>
<path d="M0 0 C74.58 0 149.16 0 226 0 C226.061875 24.399375 226.12375 48.79875 226.1875 73.9375 C226.22846802 85.45192993 226.22846802 85.45192993 226.27026367 97.19897461 C226.28381348 106.64367676 226.28381348 106.64367676 226.28633118 111.07887268 C226.28910238 114.1465265 226.30024858 117.21402123 226.31672668 120.28163147 C226.53827304 163.48068049 216.34267736 195.40206209 186 227 C185.46648926 227.556875 184.93297852 228.11375 184.38330078 228.6875 C167.15578851 246.33780312 137.71329836 266.92533088 112.40234375 269.34375 C108.51827427 268.95132966 105.16229225 267.93124814 101.5625 266.5 C100.87438232 266.23300293 100.18626465 265.96600586 99.47729492 265.69091797 C78.07249028 257.17568159 58.72317704 244.85510373 42 229 C41.04222656 228.10667969 40.08445313 227.21335937 39.09765625 226.29296875 C16.79086159 205.06541868 0.67610374 175.56711301 -0.34484863 144.43569946 C-0.52516789 136.04994084 -0.46458474 127.66170655 -0.40512085 119.27489471 C-0.38202622 115.48252621 -0.38125158 111.69026693 -0.37841797 107.89782715 C-0.35758211 96.86932137 -0.30173732 85.8409041 -0.25 74.8125 C-0.1675 50.124375 -0.085 25.43625 0 0 Z M5 6 C4.896875 28.97625 4.79375 51.9525 4.6875 75.625 C4.64197998 82.83811035 4.59645996 90.0512207 4.54956055 97.48291016 C4.53282241 104.03690509 4.53282241 104.03690509 4.52278137 110.59091187 C4.51818558 113.47514703 4.49970567 116.35890633 4.47212219 119.24301147 C4.08791959 161.30804588 15.20852025 193.92299225 44.8125 224.25 C60.78422466 240.05113214 80.55652146 251.09474906 101 260 C102.03858154 260.45681152 102.03858154 260.45681152 103.09814453 260.92285156 C110.3057434 263.88630289 115.79313016 263.41737154 122.96484375 260.5625 C123.80144531 260.211875 124.63804687 259.86125 125.5 259.5 C126.37785156 259.1390625 127.25570312 258.778125 128.16015625 258.40625 C144.1110639 251.71940662 158.47257607 243.05101518 171.72265625 231.8828125 C174 230 174 230 177 228 C177 227.34 177 226.68 177 226 C177.88631104 225.60180054 177.88631104 225.60180054 178.79052734 225.19555664 C199.84609716 213.80228312 212.04688575 181.73348663 218.45703125 160.2109375 C219.64751885 155.36334052 220.12454597 150.72241727 220.12025452 145.73574829 C220.12163201 144.50158991 220.12300951 143.26743153 220.12442875 141.9958744 C220.12088262 140.63608401 220.11724473 139.27629384 220.11352539 137.91650391 C220.11321883 136.45397634 220.11335293 134.99144863 220.11389065 133.52892113 C220.11411588 129.62172067 220.1083311 125.714551 220.10128021 121.80735779 C220.09557416 118.13744004 220.09531649 114.46752968 220.09460449 110.79760742 C220.08936267 100.07340089 220.07540146 89.34920005 220.0625 78.625 C220.041875 54.65875 220.02125 30.6925 220 6 C149.05 6 78.1 6 5 6 Z " fill="#F5EEF8" transform="translate(86,80)"/>
<path d="M0 0 C72.93 0 145.86 0 221 0 C221.33 1.32 221.66 2.64 222 4 C150.72 4.33 79.44 4.66 6 5 C5.938125 28.14125 5.87625 51.2825 5.8125 75.125 C5.78518799 82.41094238 5.75787598 89.69688477 5.72973633 97.20361328 C5.71969822 103.77903536 5.71969822 103.77903536 5.71366882 110.35446167 C5.71089272 113.265584 5.6997264 116.17653941 5.68327332 119.08761597 C5.66247705 122.8173726 5.65656635 126.54689151 5.66078317 130.27670074 C5.65949267 132.2691911 5.64351683 134.26165607 5.62671375 136.254076 C5.652447 143.79872896 6.53445862 150.64431225 8.33741283 157.97556877 C9.1711911 161.78141522 9.23245828 165.12569532 9 169 C8.01 169.33 7.02 169.66 6 170 C6 169.34 6 168.68 6 168 C5.34 168 4.68 168 4 168 C3.51933465 166.10454608 3.04053257 164.20861961 2.5625 162.3125 C2.29566406 161.25675781 2.02882813 160.20101562 1.75390625 159.11328125 C0.55863189 154.17735551 -0.12449234 149.76428389 -0.12025452 144.66618347 C-0.12163201 143.39141994 -0.12300951 142.1166564 -0.12442875 140.80326366 C-0.12088236 139.39252386 -0.11724446 137.98178428 -0.11352539 136.57104492 C-0.11321894 135.05857756 -0.11335275 133.54611006 -0.11389065 132.03364277 C-0.11411618 127.98756777 -0.10832512 123.94152242 -0.10128021 119.89545441 C-0.09558046 116.09717212 -0.09531683 112.29889699 -0.09460449 108.50061035 C-0.08935956 97.39623632 -0.07539838 86.29186778 -0.0625 75.1875 C-0.041875 50.375625 -0.02125 25.56375 0 0 Z " fill="#FBFAFD" transform="translate(86,81)"/>
<path d="M0 0 C0 15.84 0 31.68 0 48 C8.24163915 47.88185823 8.24163915 47.88185823 16.48266602 47.72973633 C22.88417294 47.68353937 27.30405316 48.10596771 33 51 C36.37703474 50.7785551 38.97227975 50.51386013 42 49 C44.25120742 48.91426606 46.50499303 48.89287812 48.7578125 48.90234375 C50.57756592 48.90609009 50.57756592 48.90609009 52.43408203 48.90991211 C53.98208496 48.91901611 55.53008789 48.92812012 57.125 48.9375 C62.03375 48.958125 66.9425 48.97875 72 49 C72 33.16 72 17.32 72 1 C73.65 1.33 75.3 1.66 77 2 C77 4.97 77 7.94 77 11 C78.69769531 10.96519531 78.69769531 10.96519531 80.4296875 10.9296875 C81.91145175 10.91093099 83.39322312 10.89273066 84.875 10.875 C85.62136719 10.85824219 86.36773437 10.84148437 87.13671875 10.82421875 C89.09194461 10.8066041 91.04742021 10.89679811 93 11 C93.99 11.99 93.99 11.99 95 13 C94.44444444 17.55555556 94.44444444 17.55555556 93 19 C90.3013095 19.07325436 87.63497444 19.09222351 84.9375 19.0625 C82.318125 19.041875 79.69875 19.02125 77 19 C77 24.28 77 29.56 77 35 C82.17574802 34.92096705 82.17574802 34.92096705 87.35107422 34.81982422 C89.23495049 34.80522783 91.11869312 34.90056518 93 35 C93.66 35.66 94.32 36.32 95 37 C94.44444444 41.55555556 94.44444444 41.55555556 93 43 C90.30345146 43.07319621 87.63308542 43.09242537 84.9375 43.0625 C83.79958008 43.05573242 83.79958008 43.05573242 82.63867188 43.04882812 C80.75908129 43.0370068 78.87953101 43.01907078 77 43 C77 46.63 77 50.26 77 54 C76.0620459 54.01981934 75.1240918 54.03963867 74.15771484 54.06005859 C70.65746299 54.1384386 67.15761836 54.22514081 63.65771484 54.31738281 C62.146727 54.35552112 60.63565304 54.39039972 59.12451172 54.421875 C56.94467522 54.46785705 54.7654238 54.52579325 52.5859375 54.5859375 C50.62213135 54.63306885 50.62213135 54.63306885 48.61865234 54.68115234 C45.08775736 54.9922675 42.31685616 55.80560181 39 57 C32.95684921 57.42408076 32.95684921 57.42408076 29.7668457 56.01025391 C26.26849497 54.73290675 22.97099725 54.64697765 19.29296875 54.5859375 C18.20487663 54.55688828 18.20487663 54.55688828 17.09480286 54.5272522 C14.79248578 54.46777892 12.49011781 54.42120155 10.1875 54.375 C8.62042168 54.33679042 7.05336369 54.29773697 5.48632812 54.2578125 C1.65771848 54.16210437 -2.17098942 54.07795552 -6 54 C-6 50.37 -6 46.74 -6 43 C-7.60875 43.12375 -9.2175 43.2475 -10.875 43.375 C-11.77992188 43.44460937 -12.68484375 43.51421875 -13.6171875 43.5859375 C-16.17941903 43.79568132 -16.17941903 43.79568132 -18 46 C-20.4375 46.375 -20.4375 46.375 -23 46 C-24.97610386 43.95575462 -26 42.8823175 -26 40 C-26.99 40 -27.98 40 -29 40 C-27.73506553 36.20519658 -26.04575642 34.56120426 -23 32 C-20.25 31.625 -20.25 31.625 -18 32 C-17.67 32.33 -17.34 32.66 -17 33 C-15.15108054 33.23363881 -13.29511969 33.41303635 -11.4375 33.5625 C-9.643125 33.706875 -7.84875 33.85125 -6 34 C-6 29.05 -6 24.1 -6 19 C-12.91295034 19.27271541 -12.91295034 19.27271541 -19 22 C-21.5625 21.9375 -21.5625 21.9375 -24 21 C-25.3125 18.4375 -25.3125 18.4375 -26 16 C-26.66 16 -27.32 16 -28 16 C-28 13 -28 13 -25.8125 10.3125 C-23 8 -23 8 -20.3125 7.5625 C-18 8 -18 8 -16 10 C-13.33757179 10.46290221 -13.33757179 10.46290221 -10.375 10.625 C-9.37210938 10.69976562 -8.36921875 10.77453125 -7.3359375 10.8515625 C-6.56507813 10.90054688 -5.79421875 10.94953125 -5 11 C-5.05220703 10.06027344 -5.05220703 10.06027344 -5.10546875 9.1015625 C-5.13253906 8.28429687 -5.15960938 7.46703125 -5.1875 6.625 C-5.23970703 5.40683594 -5.23970703 5.40683594 -5.29296875 4.1640625 C-5.19628906 3.44992188 -5.09960938 2.73578125 -5 2 C-2 0 -2 0 0 0 Z " fill="#4C2472" transform="translate(163,167)"/>
<path d="M0 0 C74.58 0 149.16 0 226 0 C226.061875 24.399375 226.12375 48.79875 226.1875 73.9375 C226.22846802 85.45192993 226.22846802 85.45192993 226.27026367 97.19897461 C226.28381348 106.64367676 226.28381348 106.64367676 226.28633118 111.07887268 C226.28910238 114.1465265 226.30024858 117.21402123 226.31672668 120.28163147 C226.53482772 162.78838267 226.53482772 162.78838267 219 175 C217.68 174.01 216.36 173.02 215 172 C215.51257136 167.5918863 216.39572545 163.45648708 217.51594543 159.16035461 C219.226773 151.78259989 219.44193625 144.66224797 219.43237305 137.12182617 C219.44150204 135.65843799 219.4519205 134.19505739 219.46350574 132.73168659 C219.49071636 128.85390135 219.50054803 124.97626476 219.50647736 121.0983963 C219.51478568 117.44397855 219.53917055 113.78973219 219.56213379 110.13537598 C219.61986957 99.4861585 219.6521696 88.83681538 219.6875 78.1875 C219.790625 54.365625 219.89375 30.54375 220 6 C149.38 6 78.76 6 6 6 C6 5.67 6 5.34 6 5 C112.425 4.505 112.425 4.505 221 4 C221 3.01 221 2.02 221 1 C148.07 1 75.14 1 0 1 C0 0.67 0 0.34 0 0 Z " fill="#EBE2F2" transform="translate(86,80)"/>
<path d="M0 0 C1.17175781 -0.03738281 2.34351563 -0.07476562 3.55078125 -0.11328125 C6.6875 0.3125 6.6875 0.3125 8.85913086 1.71313477 C11.68196917 5.72632204 11.1830741 9.54050071 11.078125 14.328125 C11.07246521 15.29909119 11.06680542 16.27005737 11.06097412 17.27044678 C11.03860311 20.36830169 10.98840473 23.46499533 10.9375 26.5625 C10.91743597 28.66404578 10.89918503 30.76560972 10.8828125 32.8671875 C10.8387358 38.0160717 10.76970258 43.16408903 10.6875 48.3125 C10.08041199 48.15173477 9.47332397 47.99096954 8.84783936 47.82533264 C6.2923617 47.21870001 3.89006159 47.09815517 1.265625 46.99609375 C0.34168945 46.95798584 -0.58224609 46.91987793 -1.53417969 46.88061523 C-2.69852539 46.83751221 -3.86287109 46.79440918 -5.0625 46.75 C-8.775 46.605625 -12.4875 46.46125 -16.3125 46.3125 C-16.3125 31.4625 -16.3125 16.6125 -16.3125 1.3125 C-10.771993 0.69688811 -5.53140205 0.11690394 0 0 Z " fill="#502577" transform="translate(185.3125,163.6875)"/>
<path d="M0 0 C1.42505859 0.01933594 1.42505859 0.01933594 2.87890625 0.0390625 C7.77208615 0.50098728 12.60184355 1.49578974 17.4375 2.375 C17.4375 16.895 17.4375 31.415 17.4375 46.375 C6.1875 46.8125 6.1875 46.8125 2.65917969 46.94311523 C1.73524414 46.98122314 0.81130859 47.01933105 -0.140625 47.05859375 C-1.55456543 47.11358032 -1.55456543 47.11358032 -2.99707031 47.16967773 C-5.3129282 47.35502571 -7.32605082 47.7827576 -9.5625 48.375 C-9.66138089 42.18201358 -9.73397486 35.98948668 -9.78222656 29.79589844 C-9.80234126 27.68904618 -9.82963667 25.58224975 -9.86425781 23.47558594 C-9.91278168 20.44712553 -9.93547016 17.41940322 -9.953125 14.390625 C-9.97377014 13.44882385 -9.99441528 12.50702271 -10.01568604 11.53668213 C-10.01792494 5.01088535 -10.01792494 5.01088535 -7.70239258 1.77783203 C-4.95116489 -0.025768 -3.27489172 -0.09593558 0 0 Z " fill="#512478" transform="translate(211.5625,163.625)"/>
<path d="M0 0 C2.475 0.495 2.475 0.495 5 1 C5 3.97 5 6.94 5 10 C6.13179687 9.97679687 7.26359375 9.95359375 8.4296875 9.9296875 C9.91145175 9.91093099 11.39322312 9.89273066 12.875 9.875 C13.62136719 9.85824219 14.36773437 9.84148437 15.13671875 9.82421875 C17.09194461 9.8066041 19.04742021 9.89679811 21 10 C21.66 10.66 22.32 11.32 23 12 C22.44444444 16.55555556 22.44444444 16.55555556 21 18 C18.3013095 18.07325436 15.63497444 18.09222351 12.9375 18.0625 C10.318125 18.041875 7.69875 18.02125 5 18 C5 23.28 5 28.56 5 34 C10.17574802 33.92096705 10.17574802 33.92096705 15.35107422 33.81982422 C17.23495049 33.80522783 19.11869312 33.90056518 21 34 C21.66 34.66 22.32 35.32 23 36 C22.44444444 40.55555556 22.44444444 40.55555556 21 42 C18.30345146 42.07319621 15.63308542 42.09242537 12.9375 42.0625 C11.79958008 42.05573242 11.79958008 42.05573242 10.63867188 42.04882812 C8.75908129 42.0370068 6.87953101 42.01907078 5 42 C5 45.3 5 48.6 5 52 C-4.57 52 -14.14 52 -24 52 C-24 51.34 -24 50.68 -24 50 C-24.66 49.34 -25.32 48.68 -26 48 C-17.42 48 -8.84 48 0 48 C0 32.16 0 16.32 0 0 Z " fill="#4E2674" transform="translate(235,168)"/>
<path d="M0 0 C2.25 0.375 2.25 0.375 3.25 1.375 C2.96269945 3.71444736 2.63063221 6.0489143 2.25 8.375 C3.57 8.375 4.89 8.375 6.25 8.375 C5.92 7.055 5.59 5.735 5.25 4.375 C7.89 4.375 10.53 4.375 13.25 4.375 C13.91 5.695 14.57 7.015 15.25 8.375 C13.93 8.705 12.61 9.035 11.25 9.375 C11.25 8.715 11.25 8.055 11.25 7.375 C10.59 8.035 9.93 8.695 9.25 9.375 C12.22 9.87 12.22 9.87 15.25 10.375 C15.25 14.005 15.25 17.635 15.25 21.375 C16.879375 21.25125 18.50875 21.1275 20.1875 21 C21.56228516 20.89558594 21.56228516 20.89558594 22.96484375 20.7890625 C23.71894531 20.65242188 24.47304687 20.51578125 25.25 20.375 C25.58 19.715 25.91 19.055 26.25 18.375 C24.27 18.045 22.29 17.715 20.25 17.375 C20.25 17.045 20.25 16.715 20.25 16.375 C24.43736668 16.28739819 28.62449531 16.23440565 32.8125 16.1875 C34.58463867 16.14979492 34.58463867 16.14979492 36.39257812 16.11132812 C42.91276616 16.05653663 47.44969661 16.41197239 53.25 19.375 C56.81592619 19.21082968 56.81592619 19.21082968 60.25 18.375 C63.5 17.6875 63.5 17.6875 66.25 17.375 C67.24 18.035 68.23 18.695 69.25 19.375 C68.92 20.035 68.59 20.695 68.25 21.375 C77.82 21.375 87.39 21.375 97.25 21.375 C97.25 21.705 97.25 22.035 97.25 22.375 C95.84306885 22.404729 95.84306885 22.404729 94.40771484 22.43505859 C90.90746299 22.5134386 87.40761836 22.60014081 83.90771484 22.69238281 C82.396727 22.73052112 80.88565304 22.76539972 79.37451172 22.796875 C77.19467522 22.84285705 75.0154238 22.90079325 72.8359375 22.9609375 C70.87213135 23.00806885 70.87213135 23.00806885 68.86865234 23.05615234 C65.33775736 23.3672675 62.56685616 24.18060181 59.25 25.375 C53.20684921 25.79908076 53.20684921 25.79908076 50.0168457 24.38525391 C46.51849497 23.10790675 43.22099725 23.02197765 39.54296875 22.9609375 C38.81757401 22.94157135 38.09217926 22.9222052 37.34480286 22.9022522 C35.04248578 22.84277892 32.74011781 22.79620155 30.4375 22.75 C28.87042168 22.71179042 27.30336369 22.67273697 25.73632812 22.6328125 C21.90771848 22.53710437 18.07901058 22.45295552 14.25 22.375 C14.25 18.745 14.25 15.115 14.25 11.375 C11.836875 11.560625 11.836875 11.560625 9.375 11.75 C8.47007812 11.81960937 7.56515625 11.88921875 6.6328125 11.9609375 C4.07058097 12.17068132 4.07058097 12.17068132 2.25 14.375 C-0.1875 14.75 -0.1875 14.75 -2.75 14.375 C-4.72610386 12.33075462 -5.75 11.2573175 -5.75 8.375 C-6.74 8.375 -7.73 8.375 -8.75 8.375 C-7.27149822 3.93949467 -4.80755483 0.65557566 0 0 Z " fill="#5C3A7B" transform="translate(142.75,198.625)"/>
<path d="M0 0 C0.33 0 0.66 0 1 0 C1 14.19 1 28.38 1 43 C2.32 42.34 3.64 41.68 5 41 C7.56542969 40.77294922 7.56542969 40.77294922 10.421875 40.8046875 C11.95908203 40.81435547 11.95908203 40.81435547 13.52734375 40.82421875 C14.59082031 40.84097656 15.65429688 40.85773438 16.75 40.875 C18.36841797 40.88853516 18.36841797 40.88853516 20.01953125 40.90234375 C22.67991278 40.92588695 25.33984336 40.95877201 28 41 C28 41.33 28 41.66 28 42 C27.06933716 42.029729 27.06933716 42.029729 26.11987305 42.06005859 C23.30865463 42.15531845 20.49817834 42.26499302 17.6875 42.375 C16.22280273 42.42140625 16.22280273 42.42140625 14.72851562 42.46875 C13.32182617 42.52675781 13.32182617 42.52675781 11.88671875 42.5859375 C11.02264404 42.6173584 10.15856934 42.6487793 9.26831055 42.68115234 C6.72257555 42.87188037 6.72257555 42.87188037 4 45 C4 45.99 4 46.98 4 48 C1.08291076 49.98362069 -0.12380904 49.9876191 -3.75 49.625 C-4.8225 49.41875 -5.895 49.2125 -7 49 C-7 48.01 -7 47.02 -7 46 C-7.3062434 44.66018514 -7.63451555 43.32488113 -8 42 C-7.01 42.33 -6.02 42.66 -5 43 C-5 29.14 -5 15.28 -5 1 C-4.67 1 -4.34 1 -4 1 C-3.67 14.53 -3.34 28.06 -3 42 C-2.34 42.33 -1.68 42.66 -1 43 C-0.67 28.81 -0.34 14.62 0 0 Z " fill="#E0D5EA" transform="translate(201,169)"/>
<path d="M0 0 C0.33 0 0.66 0 1 0 C1.33 42.9 1.66 85.8 2 130 C3.32 127.69 4.64 125.38 6 123 C7.65 123 9.3 123 11 123 C10 125 10 125 8 126 C7.29618843 127.98723268 6.6288189 129.98777953 6 132 C5.67 132.33 5.34 132.66 5 133 C3.35 133 1.7 133 0 133 C0 89.11 0 45.22 0 0 Z " fill="#513369" transform="translate(114,129)"/>
<path d="M0 0 C0.99 0.495 0.99 0.495 2 1 C2 41.26 2 81.52 2 123 C3.32 123.33 4.64 123.66 6 124 C3.525 128.95 3.525 128.95 1 134 C0.67 134 0.34 134 0 134 C0 89.78 0 45.56 0 0 Z " fill="#E8D4F3" transform="translate(115,127)"/>
<path d="M0 0 C0.721875 0.103125 1.44375 0.20625 2.1875 0.3125 C1.8575 0.9725 1.5275 1.6325 1.1875 2.3125 C1.58688767 4.41071215 1.58688767 4.41071215 2.1875 6.3125 C0.8675 6.6425 -0.4525 6.9725 -1.8125 7.3125 C-0.1625 7.6425 1.4875 7.9725 3.1875 8.3125 C3.1875 8.9725 3.1875 9.6325 3.1875 10.3125 C7.1475 10.3125 11.1075 10.3125 15.1875 10.3125 C15.1875 15.9225 15.1875 21.5325 15.1875 27.3125 C11.5575 27.3125 7.9275 27.3125 4.1875 27.3125 C4.1875 26.9825 4.1875 26.6525 4.1875 26.3125 C7.4875 26.3125 10.7875 26.3125 14.1875 26.3125 C14.1875 21.3625 14.1875 16.4125 14.1875 11.3125 C7.27454966 11.58521541 7.27454966 11.58521541 1.1875 14.3125 C-1.375 14.25 -1.375 14.25 -3.8125 13.3125 C-5.125 10.75 -5.125 10.75 -5.8125 8.3125 C-6.4725 8.3125 -7.1325 8.3125 -7.8125 8.3125 C-7.8125 5.3125 -7.8125 5.3125 -5.625 2.625 C-2.8125 0.3125 -2.8125 0.3125 0 0 Z " fill="#593E78" transform="translate(142.8125,174.6875)"/>
<path d="M0 0 C2.25 0.375 2.25 0.375 3.25 1.375 C3.15932466 2.81703037 3.00238557 4.2551533 2.8125 5.6875 C2.42384853 8.66388154 2.25 11.34802279 2.25 14.375 C-0.0625 14.625 -0.0625 14.625 -2.75 14.375 C-4.72610386 12.33075462 -5.75 11.2573175 -5.75 8.375 C-6.74 8.375 -7.73 8.375 -8.75 8.375 C-7.27149822 3.93949467 -4.80755483 0.65557566 0 0 Z " fill="#563A71" transform="translate(142.75,198.625)"/>
<path d="M0 0 C1.65 0 3.3 0 5 0 C5 14.52 5 29.04 5 44 C0.38 44 -4.24 44 -9 44 C-9 43.67 -9 43.34 -9 43 C-5.04 43 -1.08 43 3 43 C3 29.47 3 15.94 3 2 C2.01 1.67 1.02 1.34 0 1 C0 0.67 0 0.34 0 0 Z " fill="#502E6E" transform="translate(224,166)"/>
<path d="M0 0 C0.66 0 1.32 0 2 0 C2 16.17 2 32.34 2 49 C9.92 49 17.84 49 26 49 C26 49.33 26 49.66 26 50 C24.06833984 50.09087891 24.06833984 50.09087891 22.09765625 50.18359375 C20.41925841 50.26798247 18.74087364 50.3526313 17.0625 50.4375 C16.21236328 50.47681641 15.36222656 50.51613281 14.48632812 50.55664062 C13.67744141 50.59853516 12.86855469 50.64042969 12.03515625 50.68359375 C11.2862915 50.72025146 10.53742676 50.75690918 9.76586914 50.79467773 C7.97538674 50.81771063 7.97538674 50.81771063 7 52 C5.48071962 52.07179964 3.95832518 52.08392007 2.4375 52.0625 C1.61121094 52.05347656 0.78492188 52.04445312 -0.06640625 52.03515625 C-0.70449219 52.02355469 -1.34257812 52.01195312 -2 52 C-2 50.02 -2 48.04 -2 46 C-1.01 46.33 -0.02 46.66 1 47 C0.67 31.49 0.34 15.98 0 0 Z " fill="#563577" transform="translate(161,167)"/>
<path d="M0 0 C-0.875 4.875 -0.875 4.875 -2 6 C-4.53049402 6.07313567 -7.03304837 6.09247527 -9.5625 6.0625 C-10.62887695 6.05573242 -10.62887695 6.05573242 -11.71679688 6.04882812 C-13.47790013 6.03700864 -15.23896036 6.01907263 -17 6 C-17 5.67 -17 5.34 -17 5 C-15.68 4.67 -14.36 4.34 -13 4 C-13.33 2.35 -13.66 0.7 -14 -1 C-12.41870971 -1.22331199 -10.83478911 -1.42804644 -9.25 -1.625 C-8.36828125 -1.74101562 -7.4865625 -1.85703125 -6.578125 -1.9765625 C-3.77140122 -2.00207817 -2.36615134 -1.44843844 0 0 Z " fill="#55307C" transform="translate(258,204)"/>
<path d="M0 0 C-0.875 4.875 -0.875 4.875 -2 6 C-4.69654854 6.07319621 -7.36691458 6.09242537 -10.0625 6.0625 C-11.20041992 6.05573242 -11.20041992 6.05573242 -12.36132812 6.04882812 C-14.24091871 6.0370068 -16.12046899 6.01907078 -18 6 C-17.35546875 5.72414062 -16.7109375 5.44828125 -16.046875 5.1640625 C-13.71229528 4.15242111 -13.71229528 4.15242111 -13.25 1.375 C-13.1675 0.59125 -13.085 -0.1925 -13 -1 C-11.58566794 -1.2236337 -10.16832382 -1.42826476 -8.75 -1.625 C-7.56664062 -1.79902344 -7.56664062 -1.79902344 -6.359375 -1.9765625 C-3.67847541 -2.00319395 -2.27305911 -1.36592084 0 0 Z " fill="#53237C" transform="translate(258,180)"/>
<path d="M0 0 C1.70637434 3.31661492 3.21785811 6.69723926 4.6875 10.125 C5.14511719 11.17945313 5.60273437 12.23390625 6.07421875 13.3203125 C6.37972656 14.20460938 6.68523437 15.08890625 7 16 C6.67 16.66 6.34 17.32 6 18 C5.01 17.34 4.02 16.68 3 16 C3 15.34 3 14.68 3 14 C2.34 14 1.68 14 1 14 C0.67 15.32 0.34 16.64 0 18 C-0.83739781 15.8765984 -1.66980283 13.7512272 -2.5 11.625 C-3.19609375 9.84996094 -3.19609375 9.84996094 -3.90625 8.0390625 C-5 5 -5 5 -5 3 C-4.34 3 -3.68 3 -3 3 C-3 3.66 -3 4.32 -3 5 C-2.34 4.67 -1.68 4.34 -1 4 C-0.34786708 1.97536745 -0.34786708 1.97536745 0 0 Z " fill="#F0E5F4" transform="translate(95,246)"/>
<path d="M0 0 C2.64 0 5.28 0 8 0 C8.66 1.32 9.32 2.64 10 4 C8.68 4.33 7.36 4.66 6 5 C6 4.34 6 3.68 6 3 C5.34 3.66 4.68 4.32 4 5 C6.97 5.495 6.97 5.495 10 6 C10 9.63 10 13.26 10 17 C13.63 17 17.26 17 21 17 C21 17.33 21 17.66 21 18 C17.04 18 13.08 18 9 18 C9 14.37 9 10.74 9 7 C7.22625 7.20625 5.4525 7.4125 3.625 7.625 C0.6015625 7.9765625 0.6015625 7.9765625 -2 8 C-2.66 7.34 -3.32 6.68 -4 6 C-3.67 5.34 -3.34 4.68 -3 4 C-1.68 4 -0.36 4 1 4 C0.67 2.68 0.34 1.36 0 0 Z " fill="#6C488E" transform="translate(148,203)"/>
<path d="M0 0 C4.27077656 -0.05794812 8.54145236 -0.09357874 12.8125 -0.125 C14.02744141 -0.14175781 15.24238281 -0.15851563 16.49414062 -0.17578125 C17.65751953 -0.18222656 18.82089844 -0.18867188 20.01953125 -0.1953125 C21.62985229 -0.21102295 21.62985229 -0.21102295 23.27270508 -0.22705078 C26 0 26 0 29 2 C28.34 2 27.68 2 27 2 C27 2.66 27 3.32 27 4 C19.74 4 12.48 4 5 4 C5.33 3.34 5.66 2.68 6 2 C3.03 1.505 3.03 1.505 0 1 C0 0.67 0 0.34 0 0 Z " fill="#6E4990" transform="translate(163,215)"/>
<path d="M0 0 C3.125 0.52083333 6.25 1.04166667 9.375 1.5625 C10.674375 1.7790625 10.674375 1.7790625 12 2 C10.9375 4 10.9375 4 9 6 C3.04477612 6.52238806 3.04477612 6.52238806 0 5 C-1.59262066 4.84824451 -3.19064856 4.75099675 -4.7890625 4.68359375 C-5.73007813 4.64169922 -6.67109375 4.59980469 -7.640625 4.55664062 C-8.62546875 4.51732422 -9.6103125 4.47800781 -10.625 4.4375 C-11.61757812 4.39431641 -12.61015625 4.35113281 -13.6328125 4.30664062 C-16.08839838 4.20038931 -18.54408703 4.09835036 -21 4 C-21 3.67 -21 3.34 -21 3 C-19.19402344 2.90912109 -19.19402344 2.90912109 -17.3515625 2.81640625 C-15.77602923 2.73200268 -14.20050904 2.64735459 -12.625 2.5625 C-11.8309375 2.52318359 -11.036875 2.48386719 -10.21875 2.44335938 C-5.97398779 2.31106596 -5.97398779 2.31106596 -2 1 C-1.34 1.33 -0.68 1.66 0 2 C0 1.34 0 0.68 0 0 Z " fill="#573376" transform="translate(190,217)"/>
<path d="M0 0 C2.64 0 5.28 0 8 0 C7.375 2.375 7.375 2.375 6 5 C2.27031861 6.74051798 -0.91006939 7.24058415 -5 7 C-5 5.35 -5 3.7 -5 2 C-3.35 2 -1.7 2 0 2 C0 1.34 0 0.68 0 0 Z " fill="#FBF5F9" transform="translate(202,342)"/>
<path d="M0 0 C1.98 0 3.96 0 6 0 C6 0.66 6 1.32 6 2 C9.96 2 13.92 2 18 2 C18 7.61 18 13.22 18 19 C14.37 19 10.74 19 7 19 C7 18.67 7 18.34 7 18 C10.3 18 13.6 18 17 18 C17 13.05 17 8.1 17 3 C15.39125 3.144375 13.7825 3.28875 12.125 3.4375 C11.22007812 3.51871094 10.31515625 3.59992188 9.3828125 3.68359375 C6.98889139 3.86989285 6.98889139 3.86989285 5 5 C2.375 3.6875 2.375 3.6875 0 2 C0 1.34 0 0.68 0 0 Z " fill="#A287BA" transform="translate(140,183)"/>
<path d="M0 0 C4.29 0.66 8.58 1.32 13 2 C13 2.33 13 2.66 13 3 C11.35 3 9.7 3 8 3 C8 4.65 8 6.3 8 8 C4.37 7.01 0.74 6.02 -3 5 C-2.01 3.35 -1.02 1.7 0 0 Z " fill="#F4EDF5" transform="translate(189,341)"/>
<path d="M0 0 C0.33 0 0.66 0 1 0 C1.08564209 0.54938232 1.17128418 1.09876465 1.25952148 1.66479492 C1.65108339 4.17253608 2.0442772 6.68001877 2.4375 9.1875 C2.63956055 10.48397461 2.63956055 10.48397461 2.84570312 11.80664062 C3.48704305 15.88931675 4.13776221 19.95669077 5 24 C-0.02626956 19.45242278 -1.50087002 15.07173953 -2.015625 8.44921875 C-1.99573811 5.33194808 -1.26818701 2.83477096 0 0 Z " fill="#593778" transform="translate(85,224)"/>
<path d="M0 0 C0.66 0 1.32 0 2 0 C1.83766876 0.58156357 1.67533752 1.16312714 1.50808716 1.76231384 C0.71193749 5.26866714 0.85789456 8.80137793 0.8671875 12.37890625 C0.86623077 13.1873851 0.86527405 13.99586395 0.86428833 14.82884216 C0.8636091 16.53425169 0.86544544 18.23966383 0.86962891 19.94506836 C0.87498776 22.55653677 0.86967165 25.16783375 0.86328125 27.77929688 C0.86394194 29.43750038 0.86522292 31.09570378 0.8671875 32.75390625 C0.86516327 33.53520401 0.86313904 34.31650177 0.86105347 35.12147522 C0.87501 38.34313795 0.97383003 40.92149008 2 44 C0.515 44.495 0.515 44.495 -1 45 C-1.02527124 38.75204325 -1.04283344 32.50409959 -1.05493164 26.25610352 C-1.05997298 24.12881986 -1.06680591 22.00153969 -1.07543945 19.87426758 C-1.08751379 16.82372174 -1.09323014 13.77322155 -1.09765625 10.72265625 C-1.10281754 9.76537125 -1.10797882 8.80808624 -1.11329651 7.8217926 C-1.11337204 6.94095505 -1.11344757 6.06011749 -1.11352539 5.15258789 C-1.115746 4.37315323 -1.11796661 3.59371857 -1.12025452 2.79066467 C-1 1 -1 1 0 0 Z " fill="#502D6B" transform="translate(203,167)"/>
<path d="M0 0 C7.46748279 -0.36725325 7.46748279 -0.36725325 9.8125 1.25 C10.204375 1.8275 10.59625 2.405 11 3 C11.556875 3.721875 12.11375 4.44375 12.6875 5.1875 C13.120625 5.785625 13.55375 6.38375 14 7 C13.34 7.66 12.68 8.32 12 9 C9.997193 7.69161864 7.99773901 6.37857806 6 5.0625 C5.42765625 4.68931641 4.8553125 4.31613281 4.265625 3.93164062 C2.82614271 2.98055411 1.41085511 1.99305724 0 1 C0 0.67 0 0.34 0 0 Z " fill="#F4EAF8" transform="translate(133,110)"/>
<path d="M0 0 C0.66 0.33 1.32 0.66 2 1 C0.52926948 6.22926405 -3.00733149 10.41637993 -7 14 C-7.99 14 -8.98 14 -10 14 C-8.5 11 -8.5 11 -7 8 C-5.68 8 -4.36 8 -3 8 C-2.814375 6.576875 -2.814375 6.576875 -2.625 5.125 C-2 2 -2 2 0 0 Z " fill="#512E6F" transform="translate(277,130)"/>
<path d="M0 0 C0.721875 0.165 1.44375 0.33 2.1875 0.5 C1.1875 2.5 1.1875 2.5 -0.8125 3.5 C-1.51631157 5.48723268 -2.1836811 7.48777953 -2.8125 9.5 C-3.8125 10.5 -3.8125 10.5 -6.375 10.5625 C-7.179375 10.541875 -7.98375 10.52125 -8.8125 10.5 C-3.91006098 0.69512195 -3.91006098 0.69512195 0 0 Z " fill="#532F74" transform="translate(122.8125,251.5)"/>
<path d="M0 0 C0 0.99 0 1.98 0 3 C0.33 3.66 0.66 4.32 1 5 C-1.31 5.66 -3.62 6.32 -6 7 C-6.33 6.01 -6.66 5.02 -7 4 C-9.00016466 2.79117904 -9.00016466 2.79117904 -11 2 C-9.54494642 1.47007308 -8.08581873 0.9513211 -6.625 0.4375 C-5.81289062 0.14746094 -5.00078125 -0.14257812 -4.1640625 -0.44140625 C-2 -1 -2 -1 0 0 Z " fill="#EEE5F4" transform="translate(215,339)"/>
<path d="M0 0 C4.05606165 0.46800711 7.46588679 0.87953208 11 3 C8.13822943 4.43088528 6.06624227 3.59991697 3 3 C3 6.3 3 9.6 3 13 C1.26315467 9.52630934 0.69915888 7.92380063 0.375 4.25 C0.30023438 3.45078125 0.22546875 2.6515625 0.1484375 1.828125 C0.09945312 1.22484375 0.05046875 0.6215625 0 0 Z " fill="#5E4077" transform="translate(235,230)"/>
<path d="M0 0 C0.33 0.66 0.66 1.32 1 2 C1.825 2.309375 2.65 2.61875 3.5 2.9375 C4.325 3.288125 5.15 3.63875 6 4 C6.33 4.99 6.66 5.98 7 7 C8.49985609 8.66710346 8.49985609 8.66710346 10 10 C9.34 10.66 8.68 11.32 8 12 C4.7 8.7 1.4 5.4 -2 2 C-1.34 1.34 -0.68 0.68 0 0 Z " fill="#563577" transform="translate(124,293)"/>
<path d="M0 0 C4.62 0 9.24 0 14 0 C14 0.33 14 0.66 14 1 C10.7 1 7.4 1 4 1 C6.7018576 5.2236068 6.7018576 5.2236068 11 7 C8.03 7 5.06 7 2 7 C2.33 6.01 2.66 5.02 3 4 C2.34 4 1.68 4 1 4 C0.67 2.68 0.34 1.36 0 0 Z " fill="#472171" transform="translate(240,202)"/>
<path d="M0 0 C1.32 0.66 2.64 1.32 4 2 C3.125 6.875 3.125 6.875 2 8 C-0.69654854 8.07319621 -3.36691458 8.09242537 -6.0625 8.0625 C-7.20041992 8.05573242 -7.20041992 8.05573242 -8.36132812 8.04882812 C-10.24091871 8.0370068 -12.12046899 8.01907078 -14 8 C-14 7.67 -14 7.34 -14 7 C-9.38 7 -4.76 7 0 7 C0 4.69 0 2.38 0 0 Z " fill="#5C3F7B" transform="translate(254,178)"/>
<path d="M0 0 C4.04420651 1.77945087 7.46078487 4.39529673 11 7 C9.02 7.99 9.02 7.99 7 9 C6.01 8.01 5.02 7.02 4 6 C3.01 6.495 3.01 6.495 2 7 C1.566875 6.0409375 1.566875 6.0409375 1.125 5.0625 C0.17176549 2.84793921 0.17176549 2.84793921 -2 2 C-1.34 1.34 -0.68 0.68 0 0 Z " fill="#542E75" transform="translate(135,316)"/>
<path d="M0 0 C1.98 0.66 3.96 1.32 6 2 C4.35 5.3 2.7 8.6 1 12 C0.67 12 0.34 12 0 12 C0 8.04 0 4.08 0 0 Z " fill="#F3E3FA" transform="translate(115,249)"/>
<path d="M0 0 C0.66 0.33 1.32 0.66 2 1 C2 3 2 3 0.625 4.625 C-1 6 -1 6 -3 6 C-3.061875 6.61875 -3.12375 7.2375 -3.1875 7.875 C-4 10 -4 10 -6.5625 11.25 C-7.366875 11.4975 -8.17125 11.745 -9 12 C-6.45335415 7.18966896 -4.00972202 3.67557852 0 0 Z " fill="#543174" transform="translate(253,118)"/>
<path d="M0 0 C0.33 0.66 0.66 1.32 1 2 C-0.3125 4 -0.3125 4 -2 6 C-2.99 6 -3.98 6 -5 6 C-5.33 6.99 -5.66 7.98 -6 9 C-7.32 8.34 -8.64 7.68 -10 7 C-6.7 4.69 -3.4 2.38 0 0 Z " fill="#553176" transform="translate(259,318)"/>
<path d="M0 0 C2 2 2 2 2 7 C-3.94 6.01 -3.94 6.01 -10 5 C-6.23312136 3.11656068 -4.97041037 2.77942165 -1 3 C-0.67 2.01 -0.34 1.02 0 0 Z " fill="#684E86" transform="translate(161,151)"/>
<path d="M0 0 C3.21524305 1.40844718 5.32183868 3.10344786 7.75 5.625 C8.67039063 6.57246094 8.67039063 6.57246094 9.609375 7.5390625 C10.29773438 8.26222656 10.29773438 8.26222656 11 9 C10.01 9.33 9.02 9.66 8 10 C4.69652008 7.77015105 2.13543707 5.37174274 0 2 C0 1.34 0 0.68 0 0 Z " fill="#593C7B" transform="translate(120,302)"/>
<path d="M0 0 C1.65 0 3.3 0 5 0 C5.38218767 1.65614657 5.71395102 3.32457024 6 5 C5 6 5 6 2.4375 6.0625 C1.2309375 6.0315625 1.2309375 6.0315625 0 6 C-0.33 5.34 -0.66 4.68 -1 4 C-0.34 4 0.32 4 1 4 C0.67 2.68 0.34 1.36 0 0 Z " fill="#A18AB3" transform="translate(140,207)"/>
<path d="M0 0 C1.66611905 -0.042721 3.33382885 -0.04063832 5 0 C6 1 6 1 6.0625 3.5625 C6.041875 4.366875 6.02125 5.17125 6 6 C4.02 6 2.04 6 0 6 C0.185625 5.38125 0.37125 4.7625 0.5625 4.125 C1.23686176 1.95839822 1.23686176 1.95839822 0 0 Z " fill="#987EAD" transform="translate(140,199)"/>
<path d="M0 0 C-0.66 1.32 -1.32 2.64 -2 4 C-4.31 4 -6.62 4 -9 4 C-7.68 3.34 -6.36 2.68 -5 2 C-5.99 1.67 -6.98 1.34 -8 1 C-8 0.34 -8 -0.32 -8 -1 C-3.375 -2.25 -3.375 -2.25 0 0 Z " fill="#552F7E" transform="translate(204,339)"/>
<path d="M0 0 C0.33 0.66 0.66 1.32 1 2 C2.65 1.67 4.3 1.34 6 1 C6.33 1.66 6.66 2.32 7 3 C6.01 4.485 6.01 4.485 5 6 C3 5 3 5 2 4 C1.34 3.67 0.68 3.34 0 3 C0 3.66 0 4.32 0 5 C-1.32 4.34 -2.64 3.68 -4 3 C-2.68 2.01 -1.36 1.02 0 0 Z " fill="#56307D" transform="translate(265,313)"/>
<path d="M0 0 C-1.13719419 3.41158256 -2.04342944 4.11854601 -5 6 C-5.66 6 -6.32 6 -7 6 C-7.33 4.68 -7.66 3.36 -8 2 C-4.77208445 -0.1519437 -3.71599191 -0.20086443 0 0 Z " fill="#543174" transform="translate(253,314)"/>
<path d="M0 0 C0.33 0.66 0.66 1.32 1 2 C1.99 2.33 2.98 2.66 4 3 C4 4.98 4 6.96 4 9 C3.01 9 2.02 9 1 9 C1 8.01 1 7.02 1 6 C0.34 6 -0.32 6 -1 6 C-0.67 4.02 -0.34 2.04 0 0 Z " fill="#5A3284" transform="translate(307,249)"/>
<path d="M0 0 C4.12751449 0.60698743 7.3321148 2.03810791 11 4 C7.70303895 5.09898702 6.59505097 4.87124444 3.3125 4.0625 C2.10013672 3.77052734 2.10013672 3.77052734 0.86328125 3.47265625 C-0.05904297 3.23869141 -0.05904297 3.23869141 -1 3 C-0.67 2.01 -0.34 1.02 0 0 Z " fill="#5B3876" transform="translate(251,234)"/>
<path d="M0 0 C3.63 0.33 7.26 0.66 11 1 C11 1.33 11 1.66 11 2 C8.36 2.33 5.72 2.66 3 3 C3.33 3.99 3.66 4.98 4 6 C3.34 6.66 2.68 7.32 2 8 C2 7.34 2 6.68 2 6 C1.01 6 0.02 6 -1 6 C-0.67 4.02 -0.34 2.04 0 0 Z " fill="#49216B" transform="translate(146,201)"/>
<path d="M0 0 C0.78375 0.04125 1.5675 0.0825 2.375 0.125 C2.045 0.785 1.715 1.445 1.375 2.125 C1.77438767 4.22321215 1.77438767 4.22321215 2.375 6.125 C0.725 6.125 -0.925 6.125 -2.625 6.125 C-2.625 5.135 -2.625 4.145 -2.625 3.125 C-3.285 2.795 -3.945 2.465 -4.625 2.125 C-2.625 0.125 -2.625 0.125 0 0 Z " fill="#A28DB7" transform="translate(142.625,174.875)"/>
<path d="M0 0 C3.3 0 6.6 0 10 0 C10 1.32 10 2.64 10 4 C6.44219804 3.39009109 3.3171411 2.4216319 0 1 C0 0.67 0 0.34 0 0 Z " fill="#5A377F" transform="translate(185,338)"/>
<path d="M0 0 C0.66 0.33 1.32 0.66 2 1 C0.50902342 4.7952131 -1.75700849 6.61042731 -5 9 C-5.3125 6.75 -5.3125 6.75 -5 4 C-2.5 1.6875 -2.5 1.6875 0 0 Z " fill="#573679" transform="translate(269,297)"/>
<path d="M0 0 C2 3 2 3 2 7 C1.34 7.66 0.68 8.32 0 9 C0 8.34 0 7.68 0 7 C-0.99 7.33 -1.98 7.66 -3 8 C-3.66 7.34 -4.32 6.68 -5 6 C-3.35 4.02 -1.7 2.04 0 0 Z " fill="#5C337D" transform="translate(285,291)"/>
<path d="M0 0 C3.375 4.5 3.375 4.5 3 9 C1.02 9.99 1.02 9.99 -1 11 C-0.67 7.37 -0.34 3.74 0 0 Z " fill="#5F3A7E" transform="translate(311,230)"/>
<path d="M0 0 C0.886875 0.309375 1.77375 0.61875 2.6875 0.9375 C5.46709155 1.8290671 8.13136375 2.49377007 11 3 C11.33 4.32 11.66 5.64 12 7 C11.01 7.495 11.01 7.495 10 8 C10 7.34 10 6.68 10 6 C9.0925 5.7525 8.185 5.505 7.25 5.25 C3.89648511 3.96018658 2.32291764 2.68028958 0 0 Z " fill="#533074" transform="translate(256,271)"/>
<path d="M0 0 C2.0625 0.4375 2.0625 0.4375 4 1 C3.67 2.65 3.34 4.3 3 6 C1.68 6.33 0.36 6.66 -1 7 C-1.04254356 5.00045254 -1.04080783 2.99958364 -1 1 C-0.67 0.67 -0.34 0.34 0 0 Z " fill="#FAF9FB" transform="translate(296,265)"/>
<path d="M0 0 C0.33 0 0.66 0 1 0 C1 1.65 1 3.3 1 5 C4.465 4.505 4.465 4.505 8 4 C8.33 4.66 8.66 5.32 9 6 C5.52674819 7.1577506 2.63932552 7.06866652 -1 7 C-0.67 4.69 -0.34 2.38 0 0 Z " fill="#563A71" transform="translate(236,150)"/>
<path d="M0 0 C2.64 0 5.28 0 8 0 C8 0.33 8 0.66 8 1 C6.35 1 4.7 1 3 1 C3 2.65 3 4.3 3 6 C1.35 5.67 -0.3 5.34 -2 5 C-1.34 3.35 -0.68 1.7 0 0 Z " fill="#ECE3F2" transform="translate(194,343)"/>
<path d="M0 0 C-1.36983503 3.16115776 -1.9890638 3.9927092 -5 6 C-5.99 6 -6.98 6 -8 6 C-6.24081631 1.94034532 -4.71412298 0 0 0 Z " fill="#4E2F6D" transform="translate(137,239)"/>
<path d="M0 0 C0.66 0.33 1.32 0.66 2 1 C1.67 1.66 1.34 2.32 1 3 C0.34 3 -0.32 3 -1 3 C-1.66 4.32 -2.32 5.64 -3 7 C-4.65 7 -6.3 7 -8 7 C-5.53058944 4.40062046 -2.81939117 2.20979308 0 0 Z " fill="#EDE0F2" transform="translate(144,269)"/>
<path d="M0 0 C3.3 0 6.6 0 10 0 C10 0.33 10 0.66 10 1 C7.69 1.33 5.38 1.66 3 2 C2.67 3.32 2.34 4.64 2 6 C0 2.25 0 2.25 0 0 Z M-2 4 C-1.34 4 -0.68 4 0 4 C-0.33 4.66 -0.66 5.32 -1 6 C-1.33 5.34 -1.66 4.68 -2 4 Z " fill="#F5ECF5" transform="translate(147,186)"/>
<path d="M0 0 C0.99 0.33 1.98 0.66 3 1 C2.67 3.64 2.34 6.28 2 9 C1.34 8.67 0.68 8.34 0 8 C0 5.36 0 2.72 0 0 Z " fill="#51257B" transform="translate(159,171)"/>
<path d="M0 0 C2.475 0.99 2.475 0.99 5 2 C5 2.66 5 3.32 5 4 C2.625 4.625 2.625 4.625 0 5 C-0.66 4.34 -1.32 3.68 -2 3 C-1.34 2.01 -0.68 1.02 0 0 Z " fill="#FDF6F9" transform="translate(215,338)"/>
<path d="M0 0 C2.97 0.99 5.94 1.98 9 3 C5 5 5 5 1.75 4.125 C0.8425 3.75375 -0.065 3.3825 -1 3 C-0.67 2.01 -0.34 1.02 0 0 Z " fill="#5D3C7C" transform="translate(169,338)"/>
<path d="M0 0 C-2.39509338 2.89932357 -4.31245243 3.50168276 -8 4 C-8.33 3.01 -8.66 2.02 -9 1 C-6.04335481 -0.4783226 -3.25770263 -0.06032783 0 0 Z " fill="#502E70" transform="translate(225,332)"/>
<path d="M0 0 C0.66 0.33 1.32 0.66 2 1 C1.67 1.99 1.34 2.98 1 4 C1 4.99 1 5.98 1 7 C0.01 8.485 0.01 8.485 -1 10 C-2.1875 7.8125 -2.1875 7.8125 -3 5 C-1.625 2.1875 -1.625 2.1875 0 0 Z " fill="#562D7D" transform="translate(109,266)"/>
<path d="M0 0 C0.928125 0.2784375 0.928125 0.2784375 1.875 0.5625 C4.04160178 1.23686176 4.04160178 1.23686176 6 0 C5.67 1.98 5.34 3.96 5 6 C3.2925002 4.71937515 1.62626404 3.38232443 0 2 C0 1.34 0 0.68 0 0 Z " fill="#5B3B7E" transform="translate(250,265)"/>
<path d="M0 0 C0.99 0 1.98 0 3 0 C3 0.66 3 1.32 3 2 C6.3 2 9.6 2 13 2 C13 2.33 13 2.66 13 3 C11.04310341 3.22142255 9.08438048 3.4267568 7.125 3.625 C5.48917969 3.79902344 5.48917969 3.79902344 3.8203125 3.9765625 C2.42425781 3.98816406 2.42425781 3.98816406 1 4 C0.34 3.34 -0.32 2.68 -1 2 C-0.67 1.34 -0.34 0.68 0 0 Z " fill="#614082" transform="translate(145,207)"/>
<path d="M0 0 C1.65 0.99 3.3 1.98 5 3 C4.01 3.99 3.02 4.98 2 6 C0.68 4.68 -0.64 3.36 -2 2 C-1.34 2 -0.68 2 0 2 C0 1.34 0 0.68 0 0 Z " fill="#F1E9F4" transform="translate(194,162)"/>
<path d="M0 0 C0.33 0.66 0.66 1.32 1 2 C-6.42857143 2.28571429 -6.42857143 2.28571429 -10 0 C-3.34250344 -1.36176066 -3.34250344 -1.36176066 0 0 Z " fill="#D3C2E3" transform="translate(228,164)"/>
<path d="M0 0 C2.16874252 0.50603992 3.99967627 0.99983813 6 2 C6 2.99 6 3.98 6 5 C4.02 4.34 2.04 3.68 0 3 C0 2.01 0 1.02 0 0 Z " fill="#4F2F72" transform="translate(152,329)"/>
<path d="M0 0 C0.66 0 1.32 0 2 0 C3.625 2 3.625 2 5 4 C4.67 4.66 4.34 5.32 4 6 C2.68 5.67 1.36 5.34 0 5 C0 3.35 0 1.7 0 0 Z " fill="#FBFBFB" transform="translate(96,260)"/>
<path d="M0 0 C2.35953094 2.35953094 2.49141413 3.77895617 3 7 C2.01 7.495 2.01 7.495 1 8 C1 7.34 1 6.68 1 6 C0.34 6 -0.32 6 -1 6 C-1.042721 4.33388095 -1.04063832 2.66617115 -1 1 C-0.67 0.67 -0.34 0.34 0 0 Z " fill="#573575" transform="translate(90,251)"/>
<path d="M0 0 C0.66 0.66 1.32 1.32 2 2 C1.60495559 4.9628331 0.40182371 7.38326241 -1 10 C-2.31223496 6.06329512 -1.24296256 3.87511856 0 0 Z " fill="#5A3C7A" transform="translate(239,139)"/>
<path d="M0 0 C0.99 0.33 1.98 0.66 3 1 C2.67 2.65 2.34 4.3 2 6 C1.01 5.34 0.02 4.68 -1 4 C-0.67 2.68 -0.34 1.36 0 0 Z " fill="#FDF8F8" transform="translate(112,284)"/>
<path d="M0 0 C0.66 0 1.32 0 2 0 C0.52307692 6.64615385 0.52307692 6.64615385 -2.125 8.4375 C-2.74375 8.623125 -3.3625 8.80875 -4 9 C-2.80100302 5.9168649 -1.52299523 2.93720508 0 0 Z " fill="#F4E8F9" transform="translate(156,253)"/>
<path d="M0 0 C-0.75 1.9375 -0.75 1.9375 -2 4 C-4.125 4.75 -4.125 4.75 -6 5 C-6.33 4.34 -6.66 3.68 -7 3 C-2.25 0 -2.25 0 0 0 Z " fill="#573678" transform="translate(265,111)"/>
<path d="M0 0 C0.33 0.66 0.66 1.32 1 2 C0.34 2 -0.32 2 -1 2 C-1.33 2.99 -1.66 3.98 -2 5 C-2.99 5.33 -3.98 5.66 -5 6 C-5 5.34 -5 4.68 -5 4 C-5.66 3.67 -6.32 3.34 -7 3 C-4.69 2.01 -2.38 1.02 0 0 Z " fill="#5B3979" transform="translate(225,339)"/>
<path d="M0 0 C0.33 0 0.66 0 1 0 C1 1.98 1 3.96 1 6 C-0.98 6.99 -0.98 6.99 -3 8 C-1.125 2.25 -1.125 2.25 0 0 Z " fill="#5C3F7D" transform="translate(301,265)"/>
<path d="M0 0 C1.25541557 3.76624671 0.37061958 5.37188934 -1 9 C-1.66 9 -2.32 9 -3 9 C-2.44271087 5.65626525 -1.64826111 2.96687001 0 0 Z " fill="#4C2D69" transform="translate(301,245)"/>
<path d="M0 0 C-0.33 1.32 -0.66 2.64 -1 4 C-1.66 3.67 -2.32 3.34 -3 3 C-3 4.98 -3 6.96 -3 9 C-3.33 9 -3.66 9 -4 9 C-4 6.36 -4 3.72 -4 1 C-2 0 -2 0 0 0 Z " fill="#472862" transform="translate(162,168)"/>
<path d="M0 0 C0.33 0 0.66 0 1 0 C1 1.98 1 3.96 1 6 C0.01 6.495 0.01 6.495 -1 7 C-1.66 6.67 -2.32 6.34 -3 6 C-1.125 1.125 -1.125 1.125 0 0 Z " fill="#F2E4F5" transform="translate(281,129)"/>
</svg>
