<?xml version="1.0" encoding="UTF-8"?>
<svg version="1.1" xmlns="http://www.w3.org/2000/svg" width="768" height="768">
<path d="M0 0 C3.83413585 1.88406675 6.88760549 4.52206107 10.12109375 7.2890625 C11.53851983 8.47356518 12.95779946 9.65585328 14.37890625 10.8359375 C15.42159668 11.7031543 15.42159668 11.7031543 16.48535156 12.58789062 C20.67423716 16.00165946 25.07287761 19.12468847 29.49609375 22.2265625 C28.13412597 25.39058391 26.73288852 27.11457425 23.99609375 29.1875 C23.28324219 29.7340625 22.57039063 30.280625 21.8359375 30.84375 C21.06378906 31.42382812 20.29164063 32.00390625 19.49609375 32.6015625 C17.85010513 33.85917178 16.20427616 35.11699004 14.55859375 36.375 C13.71554687 37.0153418 12.8725 37.65568359 12.00390625 38.31542969 C8.14490205 41.25626739 4.32136724 44.24207333 0.49609375 47.2265625 C-1.00371311 48.39347745 -2.50371377 49.56014335 -4.00390625 50.7265625 C-5.11765625 51.5928125 -5.11765625 51.5928125 -6.25390625 52.4765625 C-14.50390625 58.89322917 -22.75390625 65.30989583 -31.00390625 71.7265625 C-31.74729248 72.3047876 -32.49067871 72.8830127 -33.2565918 73.47875977 C-34.7474996 74.63828273 -36.23854641 75.79762698 -37.72973633 76.95678711 C-41.62004165 79.98125579 -45.50744536 83.00935511 -49.390625 86.04296875 C-50.19435547 86.67009766 -50.99808594 87.29722656 -51.82617188 87.94335938 C-53.35311928 89.13490793 -54.87922309 90.3275387 -56.40429688 91.52148438 C-60.6974247 94.86940922 -65.05164353 98.0930565 -69.50390625 101.2265625 C-65.58185664 105.39231228 -61.33514451 108.71067977 -56.69140625 112.0390625 C-55.99853516 112.54115234 -55.30566406 113.04324219 -54.59179688 113.56054688 C-52.89872934 114.7865613 -51.20171869 116.0071274 -49.50390625 117.2265625 C-44.74006353 114.57790339 -40.58497419 111.27661861 -36.31640625 107.9140625 C-34.69797445 106.6470616 -33.07948322 105.38013662 -31.4609375 104.11328125 C-30.63674316 103.46665527 -29.81254883 102.8200293 -28.96337891 102.15380859 C-25.15199055 99.16719953 -21.32769882 96.19726144 -17.50390625 93.2265625 C-16.00383604 92.05998611 -14.50383624 90.89331918 -13.00390625 89.7265625 C13.99609375 68.7265625 13.99609375 68.7265625 16.24926758 66.97412109 C17.73872326 65.81563758 19.22814423 64.65710945 20.7175293 63.49853516 C24.62856369 60.45628615 28.54032312 57.4149755 32.453125 54.375 C33.67225586 53.42753906 33.67225586 53.42753906 34.91601562 52.4609375 C36.46787547 51.2549207 38.01994607 50.04917502 39.57226562 48.84375 C43.23470988 45.99704722 46.88347574 43.13652985 50.49609375 40.2265625 C54.7520578 41.64777793 57.508475 43.7205937 60.87109375 46.6640625 C66.27482974 51.32950743 71.92645602 55.54857921 77.77099609 59.64624023 C79.37997916 60.79349864 80.94312253 62.00455236 82.49609375 63.2265625 C82.49609375 63.8865625 82.49609375 64.5465625 82.49609375 65.2265625 C80.7601614 66.71099935 78.95214715 68.11118441 77.12109375 69.4765625 C75.91871764 70.38207841 74.71692664 71.28837163 73.515625 72.1953125 C72.8654541 72.68386719 72.2152832 73.17242187 71.54541016 73.67578125 C67.93781819 76.40575792 64.37560774 79.19391199 60.80859375 81.9765625 C59.26961349 83.17458482 57.7305499 84.37250011 56.19140625 85.5703125 C54.62626841 86.78901925 53.06116438 88.00776943 51.49609375 89.2265625 C42.30963312 96.38048535 33.11772648 103.52588593 23.8828125 110.6171875 C19.08585761 114.30737422 14.30875101 118.02329783 9.53955078 121.74926758 C5.49639721 124.90602096 1.43619444 128.03623711 -2.65625 131.12890625 C-3.48874268 131.76280273 -4.32123535 132.39669922 -5.17895508 133.04980469 C-6.78631526 134.27290407 -8.39928274 135.48867662 -10.01831055 136.69628906 C-10.73801025 137.24639648 -11.45770996 137.79650391 -12.19921875 138.36328125 C-12.83875488 138.84498779 -13.47829102 139.32669434 -14.13720703 139.82299805 C-15.85272385 141.25828147 -15.85272385 141.25828147 -15.50390625 144.2265625 C-14.0637071 145.72712069 -14.0637071 145.72712069 -12.109375 147.07421875 C-11.40103516 147.59693359 -10.69269531 148.11964844 -9.96289062 148.65820312 C-9.21330078 149.19638672 -8.46371094 149.73457031 -7.69140625 150.2890625 C-6.95341797 150.83111328 -6.21542969 151.37316406 -5.45507812 151.93164062 C-2.5060313 154.09071654 0.45454184 156.19886123 3.49609375 158.2265625 C11.42867168 152.34749029 19.3174634 146.43529831 26.99609375 140.2265625 C32.08338576 136.11380382 37.24450098 132.12731021 42.49609375 128.2265625 C48.45567765 123.79861696 54.28921267 119.24107002 60.0690918 114.58154297 C64.9762023 110.62875416 69.94880342 106.7747064 74.953125 102.9453125 C79.31791798 99.60282337 83.65663828 96.22684016 87.99609375 92.8515625 C88.76219971 92.25617676 89.52830566 91.66079102 90.31762695 91.04736328 C91.0468335 90.48001465 91.77604004 89.91266602 92.52734375 89.328125 C93.55988281 88.52616699 93.55988281 88.52616699 94.61328125 87.70800781 C96.23047727 86.43555638 97.8194232 85.1273453 99.40234375 83.8125 C101.49609375 82.2265625 101.49609375 82.2265625 103.49609375 82.2265625 C103.49609375 59.1265625 103.49609375 36.0265625 103.49609375 12.2265625 C117.68609375 12.2265625 131.87609375 12.2265625 146.49609375 12.2265625 C146.49609375 61.0665625 146.49609375 109.9065625 146.49609375 160.2265625 C172.23609375 160.2265625 197.97609375 160.2265625 224.49609375 160.2265625 C224.49609375 172.7665625 224.49609375 185.3065625 224.49609375 198.2265625 C184.56609375 198.2265625 144.63609375 198.2265625 103.49609375 198.2265625 C103.16609375 176.1165625 102.83609375 154.0065625 102.49609375 131.2265625 C91.63486287 139.57928294 91.63486287 139.57928294 80.80859375 147.9765625 C79.26302839 149.17969721 77.71745525 150.38282192 76.171875 151.5859375 C75.3979541 152.18857422 74.6240332 152.79121094 73.82666016 153.41210938 C69.30531176 156.93218703 64.78159851 160.44922474 60.25830078 163.96679688 C56.44482784 166.93255462 52.63198421 169.89911501 48.8203125 172.8671875 C41.20979361 178.79215523 33.58850822 184.7016058 25.9375 190.57421875 C20.80230346 194.52425092 15.69550871 198.51105558 10.5859375 202.49414062 C9.48765625 203.34975586 9.48765625 203.34975586 8.3671875 204.22265625 C7.7167749 204.72982178 7.0663623 205.2369873 6.39624023 205.75952148 C5.76919189 206.24364502 5.14214355 206.72776855 4.49609375 207.2265625 C3.83875244 207.80414307 3.18141113 208.38172363 2.50415039 208.97680664 C0.49609375 210.2265625 0.49609375 210.2265625 -1.52294922 210.08081055 C-3.71227295 209.13670854 -5.33303347 208.04342389 -7.19921875 206.55859375 C-7.905625 206.00236328 -8.61203125 205.44613281 -9.33984375 204.87304688 C-10.09523438 204.26783203 -10.850625 203.66261719 -11.62890625 203.0390625 C-13.25637369 201.7537331 -14.88398173 200.46858173 -16.51171875 199.18359375 C-17.34219727 198.52439941 -18.17267578 197.86520508 -19.02832031 197.18603516 C-22.83371315 194.17399542 -26.66918645 191.20110698 -30.50390625 188.2265625 C-32.00407302 187.06011029 -33.50407251 185.8934429 -35.00390625 184.7265625 C-35.74640625 184.1490625 -36.48890625 183.5715625 -37.25390625 182.9765625 C-45.50390625 176.55989583 -53.75390625 170.14322917 -62.00390625 163.7265625 C-62.74705078 163.1485791 -63.49019531 162.5705957 -64.25585938 161.97509766 C-65.74941913 160.81340402 -67.24290921 159.65162078 -68.73632812 158.48974609 C-72.58428476 155.49623747 -76.43359712 152.50449751 -80.28515625 149.515625 C-81.85808224 148.29428284 -83.43099906 147.07292887 -85.00390625 145.8515625 C-85.75542969 145.26874512 -86.50695312 144.68592773 -87.28125 144.08544922 C-92.16643698 140.28985051 -96.992981 136.43528172 -101.75390625 132.484375 C-103.41538944 131.03201715 -103.41538944 131.03201715 -105.50390625 131.2265625 C-105.85582031 132.17015625 -106.20773438 133.11375 -106.5703125 134.0859375 C-111.62517397 147.35473165 -118.04582712 158.52668521 -127.50390625 169.2265625 C-128.055625 169.86207031 -128.60734375 170.49757813 -129.17578125 171.15234375 C-144.83223622 188.01016037 -167.23821978 195.75259734 -189.50390625 198.2265625 C-216.56390625 198.2265625 -243.62390625 198.2265625 -271.50390625 198.2265625 C-271.50390625 136.8465625 -271.50390625 75.4665625 -271.50390625 12.2265625 C-159.07816368 12.2265625 -159.07816368 12.2265625 -132.50390625 36.2265625 C-131.22193359 37.36738281 -131.22193359 37.36738281 -129.9140625 38.53125 C-118.16709176 49.57231649 -110.38972627 63.95553435 -105.50390625 79.2265625 C-98.3302471 74.79405766 -91.86402313 69.58667182 -85.3203125 64.296875 C-80.94302578 60.76133209 -76.48456451 57.34091606 -72.015625 53.921875 C-67.82645365 50.71402768 -63.6662457 47.46909829 -59.50390625 44.2265625 C-53.31741264 39.40891024 -47.11449437 34.61421243 -40.89453125 29.83984375 C-37.60293087 27.30791945 -34.32649494 24.75673834 -31.05151367 22.20336914 C-29.52464072 21.01428701 -27.9961651 19.82725986 -26.46606445 18.64233398 C-22.53328034 15.59629279 -18.62430123 12.52643904 -14.75 9.40625 C-13.23053635 8.20043564 -11.71100752 6.99470341 -10.19140625 5.7890625 C-9.49241211 5.21502686 -8.79341797 4.64099121 -8.07324219 4.04956055 C-3.30435068 0.29898961 -3.30435068 0.29898961 0 0 Z M-228.50390625 50.2265625 C-228.50390625 86.5265625 -228.50390625 122.8265625 -228.50390625 160.2265625 C-191.66319992 162.04565205 -191.66319992 162.04565205 -161.75390625 145.9765625 C-150.61400961 134.24725334 -144.87607641 118.68129295 -145.1875 102.5703125 C-146.70918308 86.48931595 -152.88538989 71.24618936 -165.48828125 60.73828125 C-185.06916269 46.13176445 -202.68261607 50.2265625 -228.50390625 50.2265625 Z " fill="#0076CE" transform="translate(340.50390625,204.7734375)"/>
<path d="M0 0 C14.19 0 28.38 0 43 0 C43 48.84 43 97.68 43 148 C68.74 148 94.48 148 121 148 C121 160.54 121 173.08 121 186 C81.07 186 41.14 186 0 186 C0 124.62 0 63.24 0 0 Z " fill="#0076CE" transform="translate(578,217)"/>
<path d="M0 0 C1.41935919 1.17005723 2.77100703 2.42147221 4.10546875 3.6875 C4.76546875 1.7075 5.42546875 -0.2725 6.10546875 -2.3125 C10.85546875 -3.4375 10.85546875 -3.4375 13.10546875 -2.3125 C13.15213447 5.04248353 13.18750974 12.39743431 13.20909309 19.75253677 C13.21946026 23.16906269 13.23348746 26.58548615 13.25634766 30.00195312 C13.28255475 33.94399726 13.29199987 37.8860022 13.30078125 41.828125 C13.31110382 43.03486877 13.32142639 44.24161255 13.33206177 45.48492432 C13.33352157 56.69755164 12.81293321 68.24674377 6.10546875 77.6875 C-0.02963232 83.57096606 -5.17649146 84.89807349 -13.58203125 85 C-14.35998047 85.02900391 -15.13792969 85.05800781 -15.93945312 85.08789062 C-22.31373197 85.15700291 -27.65171612 83.68238082 -32.42407227 79.27490234 C-34.990861 76.36578196 -36.90610601 73.4435159 -37.89453125 69.6875 C-37.51953125 67.375 -37.51953125 67.375 -36.89453125 65.6875 C-34.58453125 65.6875 -32.27453125 65.6875 -29.89453125 65.6875 C-29.59160156 66.31398438 -29.28867187 66.94046875 -28.9765625 67.5859375 C-28.55761719 68.40320313 -28.13867188 69.22046875 -27.70703125 70.0625 C-27.30097656 70.87460937 -26.89492188 71.68671875 -26.4765625 72.5234375 C-24.49087341 75.23966405 -23.11987301 75.80871123 -19.89453125 76.6875 C-14.4102674 77.32228693 -9.50343908 77.37703193 -4.39453125 75.1875 C0.65684702 70.13612173 3.04966189 64.03591135 3.16796875 56.9375 C3.14734375 55.865 3.12671875 54.7925 3.10546875 53.6875 C2.5021875 54.10902344 1.89890625 54.53054688 1.27734375 54.96484375 C0.07851563 55.78662109 0.07851563 55.78662109 -1.14453125 56.625 C-1.9334375 57.17027344 -2.72234375 57.71554687 -3.53515625 58.27734375 C-9.72003683 61.97393628 -17.84485211 61.62639209 -24.69140625 60.0390625 C-31.71989147 57.54714501 -35.78759191 53.90137868 -39.109375 47.2578125 C-44.10635972 35.55668814 -44.28561449 22.98208847 -39.9296875 11.04296875 C-36.57683694 3.51316631 -32.12251183 -0.58998939 -24.51953125 -3.6875 C-15.9847615 -5.15901203 -7.37010458 -5.10588689 0 0 Z M-28.76953125 8.375 C-34.50988859 17.3232041 -34.9976563 26.29825296 -33.89453125 36.6875 C-32.38558543 43.55874482 -29.77387366 47.84792945 -23.89453125 51.6875 C-19.75100343 53.97734432 -15.5427703 54.38088373 -10.89453125 53.6875 C-3.99378738 51.37055333 -0.52905152 47.78141336 2.85546875 41.375 C5.99802494 32.20776427 5.1378083 20.70978295 1.3671875 11.8984375 C-1.31587883 7.19684138 -4.38777811 5.23304855 -9.51953125 3.375 C-16.86193157 1.87932586 -23.2800709 3.24354794 -28.76953125 8.375 Z " fill="#0076CE" transform="translate(551.89453125,478.3125)"/>
<path d="M0 0 C5.79569414 5.23841586 8.59442888 11.49907648 9.1640625 19.24609375 C9.19915045 22.69874779 9.18252189 26.08678864 8.890625 29.52734375 C7.890625 30.52734375 7.890625 30.52734375 6.06199646 30.64759827 C5.26479691 30.64537766 4.46759735 30.64315704 3.64624023 30.64086914 C2.74538193 30.64079361 1.84452362 30.64071808 0.91636658 30.64064026 C-0.06279221 30.63547897 -1.04195099 30.63031769 -2.05078125 30.625 C-3.04818832 30.62358505 -4.0455954 30.6221701 -5.07322693 30.62071228 C-8.27280624 30.61509489 -11.47231669 30.60253946 -14.671875 30.58984375 C-16.83528545 30.58483099 -18.99869699 30.5802677 -21.16210938 30.57617188 C-26.47788825 30.56511982 -31.79362671 30.54836479 -37.109375 30.52734375 C-36.8286191 31.95738506 -36.53752853 33.38539955 -36.2421875 34.8125 C-36.08121582 35.60793213 -35.92024414 36.40336426 -35.75439453 37.22290039 C-34.82382832 40.54750845 -33.13690793 42.75638207 -31.109375 45.52734375 C-31.109375 46.18734375 -31.109375 46.84734375 -31.109375 47.52734375 C-30.3875 47.81609375 -29.665625 48.10484375 -28.921875 48.40234375 C-27.18959954 49.09525393 -25.47459388 49.83615619 -23.796875 50.65234375 C-18.35501253 52.42411292 -13.90561616 52.1626751 -8.796875 49.77734375 C-4.64765425 47.46771892 -2.83513971 45.04799362 -0.796875 40.77734375 C-0.24 40.03484375 0.316875 39.29234375 0.890625 38.52734375 C4.078125 38.21484375 4.078125 38.21484375 6.890625 38.52734375 C8.18913398 41.99003437 7.89837533 44.17674148 6.453125 47.46484375 C3.43581468 52.98787891 -1.17210832 56.34596376 -6.9453125 58.66796875 C-15.17596664 60.90345506 -24.18474184 60.49182604 -31.92578125 56.84375 C-40.01947259 51.96436899 -43.45881922 45.16257799 -45.6953125 36.171875 C-47.43694118 25.04845408 -46.88058282 13.56998354 -40.296875 4.15234375 C-30.37887205 -7.93446083 -12.52802714 -8.74641895 0 0 Z M-30.87109375 6.1484375 C-35.89685242 11.80697934 -37.109375 14.6023924 -37.109375 22.52734375 C-24.569375 22.52734375 -12.029375 22.52734375 0.890625 22.52734375 C-0.05801271 14.93824208 -0.87945467 10.17854364 -6.6796875 5.171875 C-14.20885511 0.32169029 -24.06397289 -0.11532116 -30.87109375 6.1484375 Z " fill="#0076CE" transform="translate(169.109375,479.47265625)"/>
<path d="M0 0 C7.73985759 8.10842224 8.98816052 15.46181753 8.8359375 26.421875 C8.6328125 29.046875 8.6328125 29.046875 7.6328125 30.046875 C6.22163548 30.16897424 4.80460791 30.22458372 3.38842773 30.25219727 C2.03714027 30.2821151 2.03714027 30.2821151 0.65855408 30.31263733 C-0.32060471 30.32934982 -1.29976349 30.34606232 -2.30859375 30.36328125 C-3.80470436 30.3944529 -3.80470436 30.3944529 -5.33103943 30.42625427 C-8.53051593 30.49186137 -11.73007732 30.55068634 -14.9296875 30.609375 C-17.09310789 30.65254962 -19.25651956 30.69616355 -21.41992188 30.74023438 C-26.73558624 30.84755403 -32.05133584 30.94929927 -37.3671875 31.046875 C-37.05724854 32.31756836 -36.74730957 33.58826172 -36.42797852 34.89746094 C-36.25363785 35.61222595 -36.07929718 36.32699097 -35.89967346 37.06341553 C-34.63359869 41.77942341 -32.39719991 45.66770626 -28.3203125 48.4375 C-22.60948627 51.2338356 -17.53539841 52.23666677 -11.30078125 50.45703125 C-5.83643636 48.20700688 -3.77700942 44.87318322 -0.8203125 39.91015625 C0.6328125 38.046875 0.6328125 38.046875 4.0078125 37.484375 C5.3071875 37.7628125 5.3071875 37.7628125 6.6328125 38.046875 C7.93132148 41.50956562 7.64056283 43.69627273 6.1953125 46.984375 C3.0608451 52.70207588 -1.66390967 55.88075515 -7.5546875 58.421875 C-17.01418899 59.97261295 -25.94070827 60.06122355 -34.3671875 55.046875 C-41.38266468 49.83923233 -45.05906216 42.60470435 -46.3671875 34.046875 C-47.09184196 22.42864455 -47.04693521 11.75180714 -39.6171875 2.109375 C-29.60314309 -8.46241365 -11.1397894 -9.19124538 0 0 Z M-33.2421875 7.671875 C-36.53078482 11.71880184 -38.09300319 15.82594871 -38.3671875 21.046875 C-37.17808499 22.46413736 -37.17808499 22.46413736 -33.76538086 22.16040039 C-32.16258894 22.16024125 -30.5597919 22.15454563 -28.95703125 22.14453125 C-27.69397911 22.14240883 -27.69397911 22.14240883 -26.40541077 22.14024353 C-23.70513415 22.13462763 -21.00493922 22.12207248 -18.3046875 22.109375 C-16.47851682 22.10436205 -14.65234484 22.09979879 -12.82617188 22.09570312 C-8.33981208 22.08465304 -3.85351366 22.06737779 0.6328125 22.046875 C0.48730957 20.77618164 0.34180664 19.50548828 0.19189453 18.19628906 C0.11004913 17.48152405 0.02820374 16.76675903 -0.05612183 16.03033447 C-0.77530119 11.44460468 -3.4672887 7.6868374 -6.9375 4.69140625 C-15.90422927 -1.08483563 -25.92877467 0.1015861 -33.2421875 7.671875 Z " fill="#0076CE" transform="translate(638.3671875,479.953125)"/>
<path d="M0 0 C3.5 0.125 3.5 0.125 4.5 1.125 C4.65873955 3.34187994 4.75133837 5.56355298 4.81640625 7.78515625 C4.83718735 8.44962265 4.85796844 9.11408905 4.87937927 9.7986908 C4.94493658 11.92818543 5.00378785 14.05780668 5.0625 16.1875 C5.10567939 17.62826847 5.14929349 19.06902399 5.19335938 20.50976562 C5.30062393 24.0480404 5.40187371 27.58645869 5.5 31.125 C6.41265625 30.33738281 7.3253125 29.54976563 8.265625 28.73828125 C13.8743408 24.07804992 19.62818153 22.50493006 26.9140625 22.78515625 C33.48688909 23.64895672 38.79376145 25.67970181 43 30.9375 C47.67618058 37.53037088 47.79099162 44.6225842 47.73046875 52.3984375 C47.73001053 53.36278717 47.72955231 54.32713684 47.7290802 55.32070923 C47.7260731 57.34614299 47.71823333 59.37157476 47.70581055 61.39697266 C47.68743613 64.5108245 47.68530188 67.62438059 47.68554688 70.73828125 C47.68063559 72.70833593 47.67480898 74.67838858 47.66796875 76.6484375 C47.66685593 77.58376312 47.6657431 78.51908875 47.66459656 79.48275757 C47.65821671 80.34100128 47.65183685 81.199245 47.64526367 82.08349609 C47.63954597 83.22097794 47.63954597 83.22097794 47.63371277 84.38143921 C47.5 86.125 47.5 86.125 46.5 87.125 C43 87.25 43 87.25 39.5 87.125 C37.95660823 85.58160823 38.3677877 84.14040745 38.3581543 81.99169922 C38.35111984 81.11343475 38.34408539 80.23517029 38.33683777 79.33029175 C38.33267349 78.37309235 38.32850922 77.41589294 38.32421875 76.4296875 C38.30100783 74.4140522 38.27688999 72.39842718 38.25195312 70.3828125 C38.21691497 67.19654604 38.18754505 64.01065389 38.17407227 60.82421875 C38.15854331 57.75474178 38.11828533 54.68637048 38.07421875 51.6171875 C38.07612717 50.67213348 38.07803558 49.72707947 38.08000183 48.75338745 C37.9687906 42.70302081 37.01988517 39.08807117 33.5 34.125 C29.80907266 31.3429734 25.45779258 30.88666142 20.9375 31.1875 C15.39310122 32.0780511 11.07735356 34.02186191 7.625 38.625 C6.00334912 42.22866863 5.37943604 45.38723588 5.31054688 49.3269043 C5.29382935 50.14422531 5.27711182 50.96154633 5.2598877 51.80363464 C5.24631226 52.6766774 5.23273682 53.54972015 5.21875 54.44921875 C5.20034058 55.35122513 5.18193115 56.25323151 5.16296387 57.18257141 C5.08432058 61.03899361 5.01629599 64.89558426 4.94775391 68.75219727 C4.89618397 71.56796319 4.83889915 74.38357182 4.78125 77.19921875 C4.76767456 78.0783342 4.75409912 78.95744965 4.7401123 79.86320496 C4.61286963 86.01213037 4.61286963 86.01213037 3.5 87.125 C0 87.25 0 87.25 -3.5 87.125 C-5.27470247 85.35029753 -4.62620861 82.98110047 -4.63552856 80.61747742 C-4.63350433 79.82783096 -4.6314801 79.03818451 -4.62939453 78.22460938 C-4.63114685 77.39701614 -4.63289917 76.56942291 -4.63470459 75.7167511 C-4.63912393 72.96739638 -4.63618483 70.21810543 -4.6328125 67.46875 C-4.63348552 65.56685371 -4.63445552 63.66495751 -4.63571167 61.76306152 C-4.63718875 57.77155745 -4.63503375 53.78007571 -4.63037109 49.78857422 C-4.6246738 44.66009493 -4.62795275 39.53166798 -4.63394356 34.40319061 C-4.63754889 30.47425946 -4.63641072 26.54534082 -4.63381577 22.6164093 C-4.63314642 20.72487888 -4.63397519 18.83334735 -4.63629532 16.94181824 C-4.63882138 14.30297823 -4.63498191 11.66422419 -4.62939453 9.02539062 C-4.63141876 8.23574417 -4.63344299 7.44609772 -4.63552856 6.63252258 C-4.61002521 0.16464376 -4.61002521 0.16464376 0 0 Z " fill="#0076CE" transform="translate(249.5,450.875)"/>
<path d="M0 0 C6.62249316 5.44516104 10.4424496 11.82960459 11.8125 20.3125 C12.71704609 31.9585309 12.06943731 42.28318773 4.48046875 51.55859375 C-1.6908479 58.0478705 -8.11414106 60.35280657 -17.0625 60.625 C-25.84915744 60.42779322 -32.02673555 58.35814886 -38.46484375 52.265625 C-45.87680643 43.86203919 -46.84217175 33.05765585 -46.1875 22.3125 C-45.38626291 14.31305233 -42.14288552 6.80043087 -36.0390625 1.41796875 C-24.44026669 -6.71702285 -12.22358096 -6.47130757 0 0 Z M-31.8671875 8.703125 C-37.45689739 15.51661753 -38.02401022 23.97091042 -37.63671875 32.45703125 C-36.84113513 39.28521417 -34.34112615 44.65123147 -29.25 49.3125 C-23.98019052 52.75400823 -19.4800654 53.96345504 -13.1875 53.3125 C-6.99063257 51.30303037 -2.77364513 47.69763543 0.8125 42.3125 C4.58294228 34.23298082 4.59070274 24.68816539 1.8125 16.3125 C-0.55991218 11.30886704 -3.41829741 7.26486351 -8.1875 4.3125 C-16.92542345 1.24656195 -24.89888291 2.22983659 -31.8671875 8.703125 Z " fill="#0076CE" transform="translate(412.1875,478.6875)"/>
<path d="M0 0 C6.42357265 4.70744192 10.30604868 11.27283359 12 19 C13.02453485 30.71361288 12.94295338 42.49635104 5.8125 52.375 C-1.8601441 59.53613449 -9.3478574 61.36580337 -19.6015625 61.28515625 C-26.51577045 60.70499857 -33.12230373 58.01705902 -38 53 C-45.70425738 42.70512976 -46.08138207 31.40685417 -45 19 C-43.50525969 11.7142598 -39.57476067 5.87650782 -34 1 C-23.41680726 -5.82467569 -11.10463241 -5.85454182 0 0 Z M-28.94921875 7.66796875 C-34.81658054 13.83054372 -37.08079452 20.06218676 -37.375 28.5 C-37.12123789 36.39972485 -34.86354922 44.39769802 -29 50 C-23.93450738 53.2183017 -19.02198247 54.86028321 -13 54 C-6.28710124 52.21854532 -2.65744354 49.25644813 0.84765625 43.28515625 C4.57162976 35.90032742 5.22327848 28.03858488 3.27734375 20.0234375 C1.05010314 13.33269852 -1.67603733 9.5853043 -7.25 5.25 C-14.82154765 1.80838743 -22.53182883 2.17653489 -28.94921875 7.66796875 Z " fill="#0076CE" transform="translate(493,478)"/>
<path d="M0 0 C5.39236889 5.03584863 7.62342383 11.07646491 8.18112183 18.36807251 C8.24605604 20.96502426 8.25129754 23.55467112 8.23046875 26.15234375 C8.23001053 27.09308243 8.22955231 28.03382111 8.2290802 29.00306702 C8.22607713 30.97544632 8.21824976 32.94782366 8.20581055 34.92016602 C8.18740763 37.95272105 8.18530213 40.98497275 8.18554688 44.01757812 C8.18063648 45.93750266 8.17481026 47.85742512 8.16796875 49.77734375 C8.16685593 50.68765854 8.1657431 51.59797333 8.16459656 52.53587341 C8.11609387 58.88390613 8.11609387 58.88390613 7 60 C3.5 60.125 3.5 60.125 0 60 C-1.54339177 58.45660823 -1.1322123 57.01540745 -1.1418457 54.86669922 C-1.14888016 53.98843475 -1.15591461 53.11017029 -1.16316223 52.20529175 C-1.16732651 51.24809235 -1.17149078 50.29089294 -1.17578125 49.3046875 C-1.19899217 47.2890522 -1.22311001 45.27342718 -1.24804688 43.2578125 C-1.28308503 40.07154604 -1.31245495 36.88565389 -1.32592773 33.69921875 C-1.34145669 30.62974178 -1.38171467 27.56137048 -1.42578125 24.4921875 C-1.42387283 23.54713348 -1.42196442 22.60207947 -1.41999817 21.62838745 C-1.5312094 15.57802081 -2.48011483 11.96307117 -6 7 C-9.69092734 4.2179734 -14.04220742 3.76166142 -18.5625 4.0625 C-23.012773 4.79909691 -26.55629591 6.04664975 -30 9 C-34.02637683 14.65861344 -34.58899594 20.16396403 -34.57421875 26.93359375 C-34.58838333 27.85213638 -34.60254791 28.77067902 -34.61714172 29.71705627 C-34.65877615 32.62399305 -34.67424276 35.53030799 -34.6875 38.4375 C-34.71654297 41.36939937 -34.7509967 44.30114206 -34.78999329 47.23292542 C-34.81251654 49.05132424 -34.82831406 50.8698209 -34.83683777 52.68833923 C-34.89037062 58.89037062 -34.89037062 58.89037062 -36 60 C-39.5 60.125 -39.5 60.125 -43 60 C-44.76723811 58.23276189 -44.12762833 55.6968116 -44.12939453 53.30273438 C-44.13254669 52.08477173 -44.13569885 50.86680908 -44.13894653 49.61193848 C-44.13715675 48.27254195 -44.1351058 46.93314576 -44.1328125 45.59375 C-44.1334856 44.2299396 -44.13445567 42.86612932 -44.13571167 41.50231934 C-44.13718838 38.64069479 -44.13503497 35.7791014 -44.13037109 32.91748047 C-44.12467381 29.24181386 -44.12795296 25.56622026 -44.13394356 21.89055634 C-44.13754991 19.07337896 -44.13641025 16.25621902 -44.13381577 13.43904114 C-44.1331467 12.08339937 -44.13397421 10.72775604 -44.13629532 9.37211609 C-44.13882301 7.48049956 -44.13429014 5.58887751 -44.12939453 3.69726562 C-44.12859894 2.61884399 -44.12780334 1.54042236 -44.12698364 0.42932129 C-44 -2 -44 -2 -43 -3 C-40.5625 -3.1875 -40.5625 -3.1875 -38 -3 C-36 -1 -36 -1 -35.875 2.125 C-35.91625 3.07375 -35.9575 4.0225 -36 5 C-35.43152344 4.51789063 -34.86304688 4.03578125 -34.27734375 3.5390625 C-23.99963225 -4.86841435 -11.81215492 -7.25021923 0 0 Z " fill="#0076CE" transform="translate(352,478)"/>
<path d="M0 0 C3.44865296 3.1963125 4.95218961 6.42773648 6 11 C5.625 13.875 5.625 13.875 5 16 C2.69 16 0.38 16 -2 16 C-2.29390625 15.07767578 -2.29390625 15.07767578 -2.59375 14.13671875 C-4.32589297 9.35939362 -4.32589297 9.35939362 -7.6953125 5.69921875 C-12.97629915 3.44357465 -18.50835672 3.46460059 -24 5 C-27.56492451 7.49544716 -28.7762729 8.78193021 -29.5625 13.0625 C-28.85713239 16.74608638 -27.90067166 17.65968537 -25 20 C-21.66728295 21.20376044 -21.66728295 21.20376044 -17.9375 22 C-16.59419204 22.33116613 -15.25174345 22.66583664 -13.91015625 23.00390625 C-12.91846436 23.25164795 -12.91846436 23.25164795 -11.90673828 23.50439453 C-4.05449859 25.54537361 2.6943817 27.53752437 7.1015625 34.8203125 C9.25317047 40.04030054 8.61581638 46.21737364 6.8125 51.4375 C2.76403714 57.16118887 -2.26194662 59.63257152 -9 61 C-16.43271537 61.68071898 -24.38441675 61.89455388 -31 58 C-35.90893336 53.64697272 -39.72998758 48.96018214 -40.1875 42.25 C-40 40 -40 40 -39 39 C-36.66702567 38.95907063 -34.33294775 38.95758277 -32 39 C-31.8040625 39.67546875 -31.608125 40.3509375 -31.40625 41.046875 C-29.28648267 47.42513699 -29.28648267 47.42513699 -24.3125 51.625 C-18.59623318 53.8668816 -12.88777762 53.92349643 -7.125 51.8125 C-3.6600664 49.80283851 -2.36478639 48.75316258 -1 45 C-1.06431944 41.33379191 -1.32384674 38.9622882 -3.44921875 35.9375 C-7.81985131 32.61769334 -13.08967212 32.10916975 -18.3828125 31.02148438 C-25.57915408 29.4168947 -31.06464013 26.78482859 -36.4375 21.6875 C-38.8935987 17.46301023 -39.52822801 13.57569586 -38.55859375 8.84765625 C-37.05424028 4.23144019 -35.28583726 1.51560013 -31 -1 C-20.67831996 -5.80707276 -10.07410335 -5.20664937 0 0 Z " fill="#0076CE" transform="translate(691,478)"/>
<path d="M0 0 C5.12177375 4.2322518 7.96303585 8.20165051 9.44921875 14.765625 C9.53171875 15.6525 9.61421875 16.539375 9.69921875 17.453125 C8.69921875 18.453125 8.69921875 18.453125 5.13671875 18.515625 C4.00234375 18.495 2.86796875 18.474375 1.69921875 18.453125 C1.33570313 17.69386719 0.9721875 16.93460937 0.59765625 16.15234375 C-2.40283336 10.05893584 -2.40283336 10.05893584 -7.11328125 5.328125 C-14.72998326 3.23726562 -21.09902761 2.61405789 -28.30078125 6.453125 C-33.66304254 11.46567359 -36.01123556 16.83182066 -36.5859375 24.01953125 C-36.79329342 33.09811432 -36.15691443 39.12812332 -31.11328125 46.765625 C-26.77579692 50.91033225 -22.70179475 52.19587355 -16.80078125 52.828125 C-11.33676569 52.24269476 -6.98435702 51.09119872 -2.98828125 47.203125 C-1.04041975 44.02883218 0.34005734 40.91898661 1.69921875 37.453125 C4.00921875 37.453125 6.31921875 37.453125 8.69921875 37.453125 C10.20091305 41.95820789 8.497232 45.19506853 6.69921875 49.453125 C3.46928932 54.91915942 -2.24205602 58.12799705 -8.203125 60.07421875 C-17.25645487 61.70955022 -26.17751484 60.83319025 -34.30078125 56.453125 C-41.4811104 51.41218629 -44.29091359 44.24999638 -46.05078125 35.890625 C-46.81616736 25.36656596 -46.55949928 14.43140503 -40.30078125 5.453125 C-30.45378235 -5.89827651 -12.67513794 -8.52182449 0 0 Z " fill="#0076CE" transform="translate(228.30078125,478.546875)"/>
<path d="M0 0 C8.71844003 -0.02312611 17.43686956 -0.04091646 26.15533352 -0.05181217 C30.20325742 -0.05704041 34.25116041 -0.06413699 38.29907227 -0.07543945 C42.20235971 -0.08627043 46.10562699 -0.09227728 50.0089283 -0.09487724 C51.50133647 -0.09673111 52.99374348 -0.100351 54.48614311 -0.10573006 C56.56948139 -0.11294331 58.65273531 -0.11399083 60.73608398 -0.11352539 C61.92411118 -0.115746 63.11213837 -0.11796661 64.33616638 -0.12025452 C67 0 67 0 68 1 C68.125 3.5 68.125 3.5 68 6 C66.16780354 7.83219646 63.24286259 7.23901328 60.77734375 7.31640625 C58.88725586 7.37924805 58.88725586 7.37924805 56.95898438 7.44335938 C55.61849264 7.48317596 54.2779978 7.52288814 52.9375 7.5625 C51.59308477 7.60568042 50.2486834 7.64929456 48.90429688 7.69335938 C45.6029766 7.79985358 42.30157764 7.9018646 39 8 C38.98969254 8.97496933 38.97938507 9.94993866 38.96876526 10.95445251 C38.87120055 20.12236314 38.76848298 29.29020333 38.66066074 38.45799923 C38.60538952 43.17176359 38.55196295 47.8855341 38.50268555 52.59936523 C38.45510376 57.14460904 38.40276346 61.68977496 38.34705925 66.23492622 C38.32660757 67.97292719 38.30789924 69.71094954 38.29092598 71.44898796 C38.26694396 73.87484377 38.2368814 76.30055101 38.20532227 78.72631836 C38.1995668 79.45208069 38.19381134 80.17784302 38.18788147 80.92559814 C38.11405216 85.88594784 38.11405216 85.88594784 37 87 C33.5 87.125 33.5 87.125 30 87 C28.2917059 85.2917059 28.88028074 83.13995623 28.87557983 80.86213684 C28.87917511 80.12702377 28.88277039 79.39191071 28.88647461 78.63452148 C28.88632858 77.86384338 28.88618256 77.09316528 28.8860321 76.2991333 C28.8867314 73.73975861 28.89452455 71.1804558 28.90234375 68.62109375 C28.90420787 66.85132385 28.9056318 65.08155344 28.90663147 63.31178284 C28.91045712 58.64448634 28.9202878 53.97722077 28.93133545 49.30993652 C28.94154856 44.55102965 28.94612887 39.79211779 28.95117188 35.03320312 C28.96191003 25.68878847 28.97898701 16.3443968 29 7 C27.73555054 7.00785522 27.73555054 7.00785522 26.44555664 7.01586914 C23.32772064 7.03287826 20.20990823 7.04543406 17.09204102 7.05493164 C15.74079614 7.05997057 14.38955674 7.06680177 13.03833008 7.07543945 C11.09979566 7.08752419 9.161222 7.09269828 7.22265625 7.09765625 C5.47094116 7.10551147 5.47094116 7.10551147 3.68383789 7.11352539 C1 7 1 7 0 6 C-0.04080783 4.00041636 -0.04254356 1.99954746 0 0 Z " fill="#0076CE" transform="translate(69,451)"/>
<path d="M0 0 C2.33294775 -0.04241723 4.66702567 -0.04092937 7 0 C8.77470247 1.77470247 8.12620861 4.14389953 8.13552856 6.50752258 C8.13350433 7.29716904 8.1314801 8.08681549 8.12939453 8.90039062 C8.13114685 9.72798386 8.13289917 10.55557709 8.13470459 11.4082489 C8.13912393 14.15760362 8.13618483 16.90689457 8.1328125 19.65625 C8.13348552 21.55814629 8.13445552 23.46004249 8.13571167 25.36193848 C8.13718875 29.35344255 8.13503375 33.34492429 8.13037109 37.33642578 C8.1246738 42.46490507 8.12795275 47.59333202 8.13394356 52.72180939 C8.13754889 56.65074054 8.13641072 60.57965918 8.13381577 64.5085907 C8.13314642 66.40012112 8.13397519 68.29165265 8.13629532 70.18318176 C8.13882138 72.82202177 8.13498191 75.46077581 8.12939453 78.09960938 C8.13141876 78.88925583 8.13344299 79.67890228 8.13552856 80.49247742 C8.11426251 85.88573749 8.11426251 85.88573749 7 87 C4 87.125 4 87.125 1 87 C-0.78857062 85.21142938 -0.11990579 82.79876866 -0.12442017 80.41790771 C-0.12082489 79.61733948 -0.11722961 78.81677124 -0.11352539 77.99194336 C-0.11367142 77.15299026 -0.11381744 76.31403717 -0.1139679 75.44966125 C-0.1132685 72.66302956 -0.10547485 69.87646384 -0.09765625 67.08984375 C-0.09579217 65.16313209 -0.09436822 63.23641995 -0.09336853 61.30970764 C-0.08954259 56.22812603 -0.07971166 51.1465728 -0.06866455 46.06500244 C-0.05845206 40.88383366 -0.05387126 35.70266031 -0.04882812 30.52148438 C-0.03808946 20.34764375 -0.02101213 10.17382423 0 0 Z " fill="#0076CE" transform="translate(432,451)"/>
<path d="M0 0 C3 0.125 3 0.125 4 1.125 C4.09915795 3.02198849 4.12799314 4.92268787 4.12939453 6.82226562 C4.13254669 8.04022827 4.13569885 9.25819092 4.13894653 10.51306152 C4.13715675 11.85245805 4.1351058 13.19185424 4.1328125 14.53125 C4.1334856 15.8950604 4.13445567 17.25887068 4.13571167 18.62268066 C4.13718838 21.48430521 4.13503497 24.3458986 4.13037109 27.20751953 C4.12467381 30.88318614 4.12795296 34.55877974 4.13394356 38.23444366 C4.13754991 41.05162104 4.13641025 43.86878098 4.13381577 46.68595886 C4.1331467 48.04160063 4.13397421 49.39724396 4.13629532 50.75288391 C4.13882301 52.64450044 4.13429014 54.53612249 4.12939453 56.42773438 C4.12859894 57.50615601 4.12780334 58.58457764 4.12698364 59.69567871 C4 62.125 4 62.125 3 63.125 C0 63.25 0 63.25 -3 63.125 C-4.76723811 61.35776189 -4.12762833 58.8218116 -4.12939453 56.42773438 C-4.13254669 55.20977173 -4.13569885 53.99180908 -4.13894653 52.73693848 C-4.13715675 51.39754195 -4.1351058 50.05814576 -4.1328125 48.71875 C-4.1334856 47.3549396 -4.13445567 45.99112932 -4.13571167 44.62731934 C-4.13718838 41.76569479 -4.13503497 38.9041014 -4.13037109 36.04248047 C-4.12467381 32.36681386 -4.12795296 28.69122026 -4.13394356 25.01555634 C-4.13754991 22.19837896 -4.13641025 19.38121902 -4.13381577 16.56404114 C-4.1331467 15.20839937 -4.13397421 13.85275604 -4.13629532 12.49711609 C-4.13882301 10.60549956 -4.13429014 8.71387751 -4.12939453 6.82226562 C-4.12859894 5.74384399 -4.12780334 4.66542236 -4.12698364 3.55432129 C-3.93878503 -0.04610222 -3.66613872 0.15275578 0 0 Z " fill="#0076CE" transform="translate(580,474.875)"/>
<path d="M0 0 C2.64 0 5.28 0 8 0 C8.02688151 1.64574566 8.04634123 3.29161413 8.0625 4.9375 C8.07410156 5.85402344 8.08570313 6.77054687 8.09765625 7.71484375 C8 10 8 10 7 11 C4 11.125 4 11.125 1 11 C0 10 0 10 -0.09765625 7.71484375 C-0.08605469 6.79832031 -0.07445312 5.88179688 -0.0625 4.9375 C-0.05347656 4.01839844 -0.04445313 3.09929687 -0.03515625 2.15234375 C-0.02355469 1.44207031 -0.01195312 0.73179687 0 0 Z " fill="#0076CE" transform="translate(576,456)"/>
</svg>
